<?xml version="1.0" encoding="UTF-8"?>
<svg version="1.1" xmlns="http://www.w3.org/2000/svg" width="500" height="500">
<path d="M0 0 C2 3 2 3 1.875 5.375 C1 8 1 8 -3 13 C4.59 13 12.18 13 20 13 C18.35 11.02 16.7 9.04 15 7 C15.07281494 3.2136229 15.31070077 1.68929923 18 -1 C22.23433376 -0.92010691 24.37709204 -0.53392111 27.625 2.25 C28.800625 3.61125 28.800625 3.61125 30 5 C30.886875 5.86625 31.77375 6.7325 32.6875 7.625 C35 10 35 10 37 13 C40.58327789 13.66319894 44.23769225 13.46291956 47.875 13.4375 C48.88175781 13.45748047 49.88851563 13.47746094 50.92578125 13.49804688 C56.52796118 13.74307112 56.52796118 13.74307112 61.04296875 11.00390625 C62.01169922 10.01197266 62.01169922 10.01197266 63 9 C66.47926473 8.37156074 69.91142022 8.44231362 73.4375 8.5 C74.37916016 8.48453125 75.32082031 8.4690625 76.29101562 8.453125 C80.6911004 8.47796669 83.28832566 8.56204656 87.09765625 10.90625 C90.16639959 14.28375807 90.1147457 16.23234166 90.07836914 20.71557617 C90.07249283 21.91409714 90.06661652 23.1126181 90.06056213 24.34745789 C90.05217819 25.64947647 90.04379425 26.95149506 90.03515625 28.29296875 C90.03569549 31.03452121 90.04445385 33.77603932 90.05273438 36.51757812 C90.06496624 40.85202342 90.06676858 45.1854841 90.02416992 49.51977539 C89.9906385 53.02404495 89.99630504 56.52636829 90.02773857 60.03063393 C90.03502164 62.00645005 90.00130032 63.98228092 89.96681213 65.95780945 C89.93063874 72.54402638 89.93063874 72.54402638 92.72238159 78.28555298 C94.73232266 80.03875556 96.80425686 81.49245663 99 83 C105 89.18949127 105 89.18949127 105 92 C105.99 92.33 106.98 92.66 108 93 C125.96051404 115.38095097 134.21385347 143.64905693 134.25 171.9375 C134.25167175 172.62642334 134.25334351 173.31534668 134.25506592 174.02514648 C134.25698916 187.2462867 132.73000425 199.28555072 129 212 C130.32 212.33 131.64 212.66 133 213 C132.46700042 218.58100143 131.35806102 223.46233238 129.375 228.71875 C128.82827771 230.21702901 128.28275671 231.71574678 127.73828125 233.21484375 C127.45291504 233.99520996 127.16754883 234.77557617 126.87353516 235.57958984 C125.38228421 239.71158032 123.97429779 243.8715807 122.5625 248.03125 C121.97135625 249.76692779 121.3802104 251.50260487 120.7890625 253.23828125 C120.19259728 254.99214974 119.5962434 256.74605609 119 258.5 C115.57846212 268.56499282 112.15255892 278.62781178 108.625 288.65625 C108.24879517 289.72885071 108.24879517 289.72885071 107.86499023 290.82312012 C106.1214233 295.7571534 106.1214233 295.7571534 105 298 C123.81 297.505 123.81 297.505 143 297 C142.67 296.34 142.34 295.68 142 295 C141.77398574 292.55915741 141.59928052 290.13756603 141.46484375 287.69140625 C141.40037804 286.6076194 141.40037804 286.6076194 141.33460999 285.50193787 C141.19814971 283.18901029 141.06786948 280.87577804 140.9375 278.5625 C140.84608432 277.00713901 140.754292 275.4518001 140.66210938 273.89648438 C140 262.58371365 140 262.58371365 140 259 C152.87 259 165.74 259 179 259 C179 261.31 179 263.62 179 266 C179.556875 266.061875 180.11375 266.12375 180.6875 266.1875 C184.10532787 267.38835844 185.75407292 269.19259115 188 272 C188.71510039 275.81386877 188.34835953 277.41046849 186.375 280.75 C183.68878692 283.29483345 181.55839258 284.11040186 178 285 C177.86722656 285.77085937 177.73445313 286.54171875 177.59765625 287.3359375 C177.42105469 288.33882813 177.24445313 289.34171875 177.0625 290.375 C176.80146484 291.87160156 176.80146484 291.87160156 176.53515625 293.3984375 C176 296 176 296 175 298 C186.22 298 197.44 298 209 298 C209 299.32 209 300.64 209 302 C44 302 -121 302 -291 302 C-291 300.68 -291 299.36 -291 298 C-261.63 298 -232.26 298 -202 298 C-202.495 296.515 -202.495 296.515 -203 295 C-203.11168927 292.29442162 -203.16766367 289.61392705 -203.17700195 286.90771484 C-203.18357315 286.08292633 -203.19014435 285.25813782 -203.19691467 284.40835571 C-203.21664029 281.67588203 -203.22831069 278.94346338 -203.23828125 276.2109375 C-203.24235678 275.27612171 -203.2464323 274.34130592 -203.25063133 273.37816238 C-203.27149225 268.42707795 -203.285792 263.47602122 -203.29516602 258.52490234 C-203.30621045 253.42399339 -203.34058758 248.32352307 -203.38033772 243.22276878 C-203.40655573 239.29008199 -203.41486261 235.3574987 -203.41844749 231.42473221 C-203.42330266 229.54536615 -203.43488597 227.66600438 -203.45348549 225.78672409 C-203.64318653 205.34328572 -203.64318653 205.34328572 -196.74609375 197.40625 C-195.98425781 196.7771875 -195.22242188 196.148125 -194.4375 195.5 C-193.67308594 194.8503125 -192.90867187 194.200625 -192.12109375 193.53125 C-188.48630432 190.90723995 -185.58285757 190.97598985 -181.25 190.9375 C-176.68558237 190.60772965 -176.68558237 190.60772965 -172.8671875 188.296875 C-171.70642641 186.89146919 -170.59438018 185.44437151 -169.53515625 183.9609375 C-168 182 -168 182 -164.5625 180.3125 C-161.68961299 178.24574059 -161.68961299 178.24574059 -161.734375 175.08203125 C-161.78679738 172.76234098 -161.86394484 170.44308768 -161.96484375 168.125 C-162.03593827 161.80548683 -158.50821526 158.1652055 -154.40234375 153.80859375 C-148.7939604 146.57549768 -150.39846882 135.52950162 -151.453125 126.88671875 C-151.63101613 125.54888666 -151.81327721 124.21162805 -152 122.875 C-153.60379077 111.31357614 -155.03430305 99.69231706 -148.39453125 89.546875 C-143.28559852 83.10388826 -137.39675808 79.75689642 -130.16943359 76.19458008 C-126.1594855 74.20648068 -122.78429442 72.29337199 -119.5 69.1875 C-112.22407752 62.35639374 -105.2931692 61.46981536 -95.59863281 61.59301758 C-89.95123378 61.79269095 -85.13189696 62.53108319 -80 65 C-79.36578125 65.24363281 -78.7315625 65.48726563 -78.078125 65.73828125 C-67.95793309 70.00900224 -59.29966382 78.98360006 -55 89 C-53.79001757 92.47970234 -52.67648862 95.98857376 -51.5625 99.5 C-47.82817703 111.23717181 -43.06030645 118.56439169 -33.6953125 126.640625 C-30.73675411 129.23043553 -27.9168234 131.92062041 -25.125 134.6875 C-24.24070312 135.55761719 -23.35640625 136.42773438 -22.4453125 137.32421875 C-13.20118246 147.43960067 -11.67177004 157.31721625 -12.125 170.6875 C-13.45826338 175.73485424 -15.70796026 180.32288569 -18 185 C-18.66 185 -19.32 185 -20 185 C-20.19851563 185.56332031 -20.39703125 186.12664062 -20.6015625 186.70703125 C-22.55222923 189.90547083 -25.32035881 191.64546564 -28.375 193.6875 C-28.9525 194.09033203 -29.53 194.49316406 -30.125 194.90820312 C-33.00296636 196.86955691 -35.51544316 198.49362351 -39 199 C-36.91213994 203.88218637 -34.81089529 208.75816121 -32.6875 213.625 C-32.38481201 214.32012695 -32.08212402 215.01525391 -31.77026367 215.73144531 C-29.85602592 220.10713172 -27.86084197 224.43496489 -25.8125 228.75 C-23.47193713 233.77879556 -21.60597999 238.82677484 -19.92578125 244.109375 C-18.74179499 247.80620973 -17.42494368 251.43891427 -16.0234375 255.05859375 C-15 258 -15 258 -14.1640625 261.66015625 C-13.14982875 265.58321241 -12.21518017 268.59716299 -10 272 C-5.08251906 274.43643897 -0.42193524 275.15085035 5 276 C7.01178871 276.63019887 9.0116299 277.29940825 11 278 C13.9506641 278.90111567 16.91312497 279.76153813 19.875 280.625 C20.65875 280.85445313 21.4425 281.08390625 22.25 281.3203125 C24.16637583 281.88120299 26.08314765 282.44074018 28 283 C28.4803318 281.41701974 28.95921612 279.83360022 29.4375 278.25 C29.70433594 277.36828125 29.97117187 276.4865625 30.24609375 275.578125 C30.88468494 273.39434165 31.46775833 271.21164502 32 269 C32.66 269 33.32 269 34 269 C34.061875 267.96875 34.12375 266.9375 34.1875 265.875 C34.84631238 260.64110166 36.69930451 255.94013887 38.52734375 251.015625 C40.20222325 246.50221758 41.73066173 241.94270977 43.25 237.375 C43.5080542 236.60494629 43.7661084 235.83489258 44.03198242 235.04150391 C44.27408447 234.31366699 44.51618652 233.58583008 44.765625 232.8359375 C45.08708496 231.86986572 45.08708496 231.86986572 45.41503906 230.88427734 C46.01939677 228.9375191 46.52395705 226.98167995 47 225 C47.66 225 48.32 225 49 225 C49.12375 223.7625 49.2475 222.525 49.375 221.25 C49.7206728 217.79327201 50.34445298 216.31109404 52 213 C76.09 213 100.18 213 125 213 C126.32 206.07 127.64 199.14 129 192 C129.33 191.01 129.66 190.02 130 189 C130.95523463 181.35812292 131.23583333 173.69265874 131 166 C130.98324219 165.20980469 130.96648437 164.41960937 130.94921875 163.60546875 C130.58889533 157.06817246 129.16664463 150.79576367 127.6875 144.4375 C127.48680908 143.56303223 127.28611816 142.68856445 127.0793457 141.78759766 C121.84910295 120.17358401 108.95993075 93.63995383 90 81 C90.33 81.99 90.66 82.98 91 84 C91.14233399 88.116684 91.03266689 92.22472046 90.92285156 96.34179688 C90.89103971 97.69347617 90.8698203 99.04544769 90.859375 100.39746094 C90.84407787 102.35644955 90.7935159 104.3150617 90.7421875 106.2734375 C90.7201123 107.44310059 90.69803711 108.61276367 90.67529297 109.81787109 C89.81690753 113.86277194 88.10006756 115.36076142 85 118 C84.67 118.33 84.34 118.66 84 119 C81.04904719 119.11660763 78.12119633 119.16802929 75.16918945 119.17700195 C73.77891289 119.18685875 73.77891289 119.18685875 72.36054993 119.19691467 C69.27812631 119.21670398 66.19575158 119.22832415 63.11328125 119.23828125 C62.06256124 119.24235678 61.01184124 119.2464323 59.92928123 119.25063133 C54.36569793 119.27151835 48.80213947 119.28580737 43.23852539 119.29516602 C37.48934636 119.30622232 31.74055526 119.34060594 25.99151325 119.38033772 C21.57426736 119.40648255 17.15711405 119.41485609 12.73979759 119.41844749 C10.62071304 119.42332074 8.50163281 119.43495562 6.38262367 119.45348549 C3.41403155 119.47782603 0.44644452 119.47692075 -2.5222168 119.4699707 C-3.396745 119.48278076 -4.27127319 119.49559082 -5.17230225 119.50878906 C-10.74288797 119.46130201 -13.69326922 118.58731227 -18 115 C-20.94398906 111.34401072 -20.25074545 106.54834617 -20.1953125 102.078125 C-20.19106766 100.78814606 -20.19106766 100.78814606 -20.18673706 99.47210693 C-20.1755615 96.73126179 -20.15046179 93.99074602 -20.125 91.25 C-20.1149668 89.38932764 -20.10584155 87.52865015 -20.09765625 85.66796875 C-20.07563076 81.11185268 -20.04111897 76.55598214 -20 72 C-22.31 72 -24.62 72 -27 72 C-25.29379033 70.11418931 -23.76930541 68.86394934 -21.5625 67.5625 C-16.88733528 64.75778582 -16.88733528 64.75778582 -14.4543457 60.02661133 C-13.48912743 53.44201948 -12.7572903 45.62479846 -16.37548828 39.77685547 C-19.23109091 36.40955994 -22.4250323 33.62999815 -25.83984375 30.84765625 C-28.12737814 28.94763464 -28.9374671 28.15199278 -30.09765625 25.33203125 C-29.97727869 22.457415 -29.47774157 21.68999488 -27.5 19.625 C-26.86707031 18.95597656 -26.23414063 18.28695312 -25.58203125 17.59765625 C-24.72996094 16.74042969 -23.87789063 15.88320312 -23 15 C-21.75390482 13.72786599 -20.5078112 12.45573044 -19.26171875 11.18359375 C-16.59384686 8.47902575 -13.92187139 5.77882283 -11.23046875 3.09765625 C-10.65707764 2.52539307 -10.08368652 1.95312988 -9.49291992 1.36352539 C-6.28397819 -1.56729056 -4.08045201 -1.020113 0 0 Z M71 255 C70.24954494 258.58543666 70.24954494 258.58543666 71 262 C72.44148975 264.18547684 72.44148975 264.18547684 75 265 C78.59471004 265.24838381 78.59471004 265.24838381 82 264 C84.4374243 260.7247111 85.03180925 258.82704037 84.875 254.75 C84.21799254 251.69415972 84.21799254 251.69415972 81 250 C76.00545376 249.07995201 73.92654063 251.07007401 71 255 Z M178 271 C177.67 273.31 177.34 275.62 177 278 C177.99 278.33 178.98 278.66 180 279 C180.99 278.34 181.98 277.68 183 277 C182.80528889 275.05000871 182.80528889 275.05000871 182 273 C180.0162233 271.71563266 180.0162233 271.71563266 178 271 Z " fill="#BF65C3" transform="translate(291,91)"/>
<path d="M0 0 C2 3 2 3 1.875 5.375 C1 8 1 8 -3 13 C4.59 13 12.18 13 20 13 C18.35 11.02 16.7 9.04 15 7 C15.07281494 3.2136229 15.31070077 1.68929923 18 -1 C22.23433376 -0.92010691 24.37709204 -0.53392111 27.625 2.25 C28.800625 3.61125 28.800625 3.61125 30 5 C30.886875 5.86625 31.77375 6.7325 32.6875 7.625 C35 10 35 10 37 13 C40.58327789 13.66319894 44.23769225 13.46291956 47.875 13.4375 C48.88175781 13.45748047 49.88851563 13.47746094 50.92578125 13.49804688 C56.52796118 13.74307112 56.52796118 13.74307112 61.04296875 11.00390625 C62.01169922 10.01197266 62.01169922 10.01197266 63 9 C66.47926473 8.37156074 69.91142022 8.44231362 73.4375 8.5 C74.37916016 8.48453125 75.32082031 8.4690625 76.29101562 8.453125 C80.6911004 8.47796669 83.28832566 8.56204656 87.09765625 10.90625 C90.16639959 14.28375807 90.1147457 16.23234166 90.07836914 20.71557617 C90.07249283 21.91409714 90.06661652 23.1126181 90.06056213 24.34745789 C90.05217819 25.64947647 90.04379425 26.95149506 90.03515625 28.29296875 C90.03569549 31.03452121 90.04445385 33.77603932 90.05273438 36.51757812 C90.06496624 40.85202342 90.06676858 45.1854841 90.02416992 49.51977539 C89.9906385 53.02404495 89.99630504 56.52636829 90.02773857 60.03063393 C90.03502164 62.00645005 90.00130032 63.98228092 89.96681213 65.95780945 C89.93063874 72.54402638 89.93063874 72.54402638 92.72238159 78.28555298 C94.73232266 80.03875556 96.80425686 81.49245663 99 83 C105 89.18949127 105 89.18949127 105 92 C105.99 92.33 106.98 92.66 108 93 C125.96051404 115.38095097 134.21385347 143.64905693 134.25 171.9375 C134.25167175 172.62642334 134.25334351 173.31534668 134.25506592 174.02514648 C134.25698916 187.2462867 132.73000425 199.28555072 129 212 C130.32 212.33 131.64 212.66 133 213 C132.46700042 218.58100143 131.35806102 223.46233238 129.375 228.71875 C128.82827771 230.21702901 128.28275671 231.71574678 127.73828125 233.21484375 C127.45291504 233.99520996 127.16754883 234.77557617 126.87353516 235.57958984 C125.38228421 239.71158032 123.97429779 243.8715807 122.5625 248.03125 C121.97135625 249.76692779 121.3802104 251.50260487 120.7890625 253.23828125 C120.19259728 254.99214974 119.5962434 256.74605609 119 258.5 C115.57846212 268.56499282 112.15255892 278.62781178 108.625 288.65625 C108.24879517 289.72885071 108.24879517 289.72885071 107.86499023 290.82312012 C106.1214233 295.7571534 106.1214233 295.7571534 105 298 C123.81 297.505 123.81 297.505 143 297 C142.67 296.34 142.34 295.68 142 295 C141.77398574 292.55915741 141.59928052 290.13756603 141.46484375 287.69140625 C141.40037804 286.6076194 141.40037804 286.6076194 141.33460999 285.50193787 C141.19814971 283.18901029 141.06786948 280.87577804 140.9375 278.5625 C140.84608432 277.00713901 140.754292 275.4518001 140.66210938 273.89648438 C140 262.58371365 140 262.58371365 140 259 C152.87 259 165.74 259 179 259 C179 261.31 179 263.62 179 266 C179.556875 266.061875 180.11375 266.12375 180.6875 266.1875 C184.10532787 267.38835844 185.75407292 269.19259115 188 272 C188.71510039 275.81386877 188.34835953 277.41046849 186.375 280.75 C183.68878692 283.29483345 181.55839258 284.11040186 178 285 C177.86722656 285.77085937 177.73445313 286.54171875 177.59765625 287.3359375 C177.42105469 288.33882813 177.24445313 289.34171875 177.0625 290.375 C176.80146484 291.87160156 176.80146484 291.87160156 176.53515625 293.3984375 C176 296 176 296 175 298 C186.22 298 197.44 298 209 298 C209 299.32 209 300.64 209 302 C44 302 -121 302 -291 302 C-291 300.68 -291 299.36 -291 298 C-261.63 298 -232.26 298 -202 298 C-202.495 296.515 -202.495 296.515 -203 295 C-203.11168927 292.29442162 -203.16766367 289.61392705 -203.17700195 286.90771484 C-203.18357315 286.08292633 -203.19014435 285.25813782 -203.19691467 284.40835571 C-203.21664029 281.67588203 -203.22831069 278.94346338 -203.23828125 276.2109375 C-203.24235678 275.27612171 -203.2464323 274.34130592 -203.25063133 273.37816238 C-203.27149225 268.42707795 -203.285792 263.47602122 -203.29516602 258.52490234 C-203.30621045 253.42399339 -203.34058758 248.32352307 -203.38033772 243.22276878 C-203.40655573 239.29008199 -203.41486261 235.3574987 -203.41844749 231.42473221 C-203.42330266 229.54536615 -203.43488597 227.66600438 -203.45348549 225.78672409 C-203.64318653 205.34328572 -203.64318653 205.34328572 -196.74609375 197.40625 C-195.98425781 196.7771875 -195.22242188 196.148125 -194.4375 195.5 C-193.67308594 194.8503125 -192.90867187 194.200625 -192.12109375 193.53125 C-188.11468201 190.63896013 -184.61182576 190.89346949 -179.8125 190.9375 C-178.54019531 190.94652344 -177.26789063 190.95554687 -175.95703125 190.96484375 C-174.49330078 190.98224609 -174.49330078 190.98224609 -173 191 C-173.16113281 191.54785156 -173.32226562 192.09570312 -173.48828125 192.66015625 C-176.46896668 206.28939725 -171.97216142 221.06608493 -168 234 C-167.66355469 235.175625 -167.32710938 236.35125 -166.98046875 237.5625 C-163.20388974 250.37351006 -158.20685573 262.71059051 -153 275 C-152.63970703 275.85384277 -152.27941406 276.70768555 -151.90820312 277.58740234 C-148.26446871 286.04457286 -144.9450299 293.17145663 -136 297 C-132.49356462 298.16881179 -129.75098532 298.11998427 -126.05004883 298.11352539 C-125.34735367 298.11367142 -124.64465851 298.11381744 -123.92066956 298.1139679 C-121.59942532 298.11327157 -119.27826146 298.10549226 -116.95703125 298.09765625 C-115.3470616 298.09579108 -113.73709139 298.09436764 -112.12712097 298.09336853 C-107.89057853 298.08955118 -103.6540704 298.07972755 -99.4175415 298.06866455 C-95.09412093 298.05843364 -90.77069481 298.05386731 -86.44726562 298.04882812 C-77.96482801 298.03810459 -69.48241827 298.02103753 -61 298 C-61.48678223 296.90059082 -61.97356445 295.80118164 -62.47509766 294.66845703 C-64.4504027 289.91646638 -64.65118663 286.06383284 -64 281 C-61.97368421 276.48684211 -61.97368421 276.48684211 -59 275 C-57.125 274.8671875 -57.125 274.8671875 -55 274.875 C-53.948125 274.87113281 -53.948125 274.87113281 -52.875 274.8671875 C-51 275 -51 275 -49 276 C-49 276.66 -49 277.32 -49 278 C-50.175625 278.433125 -50.175625 278.433125 -51.375 278.875 C-54.09671632 279.84912254 -54.09671632 279.84912254 -56 282 C-56.64832383 287.40269859 -55.46927021 290.71576897 -52.875 295.30078125 C-52 297 -52 297 -52 299 C-36.16 298.505 -36.16 298.505 -20 298 C-20 297.34 -20 296.68 -20 296 C-21.5159375 296.0928125 -21.5159375 296.0928125 -23.0625 296.1875 C-27.55499372 295.97357173 -30.01085961 294.95386468 -34 293 C-30.92478317 291.46239158 -28.65324882 292.63400764 -25.375 293.4375 C-23.59222656 293.86869141 -23.59222656 293.86869141 -21.7734375 294.30859375 C-20.40058594 294.65083984 -20.40058594 294.65083984 -19 295 C-19 294.34 -19 293.68 -19 293 C2.62591912 291.40441176 2.62591912 291.40441176 12 293 C11.979375 291.80375 11.95875 290.6075 11.9375 289.375 C11.93117429 285.81995131 12.30111125 282.49444376 13 279 C18.11365014 280.0681847 23.07227969 281.23107476 28 283 C28.4803318 281.41701974 28.95921612 279.83360022 29.4375 278.25 C29.70433594 277.36828125 29.97117187 276.4865625 30.24609375 275.578125 C30.88468494 273.39434165 31.46775833 271.21164502 32 269 C32.66 269 33.32 269 34 269 C34.061875 267.96875 34.12375 266.9375 34.1875 265.875 C34.84631238 260.64110166 36.69930451 255.94013887 38.52734375 251.015625 C40.20222325 246.50221758 41.73066173 241.94270977 43.25 237.375 C43.5080542 236.60494629 43.7661084 235.83489258 44.03198242 235.04150391 C44.27408447 234.31366699 44.51618652 233.58583008 44.765625 232.8359375 C45.08708496 231.86986572 45.08708496 231.86986572 45.41503906 230.88427734 C46.01939677 228.9375191 46.52395705 226.98167995 47 225 C47.66 225 48.32 225 49 225 C49.12375 223.7625 49.2475 222.525 49.375 221.25 C49.7206728 217.79327201 50.34445298 216.31109404 52 213 C76.09 213 100.18 213 125 213 C126.32 206.07 127.64 199.14 129 192 C129.33 191.01 129.66 190.02 130 189 C130.95523463 181.35812292 131.23583333 173.69265874 131 166 C130.98324219 165.20980469 130.96648437 164.41960937 130.94921875 163.60546875 C130.58889533 157.06817246 129.16664463 150.79576367 127.6875 144.4375 C127.48680908 143.56303223 127.28611816 142.68856445 127.0793457 141.78759766 C121.84910295 120.17358401 108.95993075 93.63995383 90 81 C90.33 81.99 90.66 82.98 91 84 C91.14233399 88.116684 91.03266689 92.22472046 90.92285156 96.34179688 C90.89103971 97.69347617 90.8698203 99.04544769 90.859375 100.39746094 C90.84407787 102.35644955 90.7935159 104.3150617 90.7421875 106.2734375 C90.7201123 107.44310059 90.69803711 108.61276367 90.67529297 109.81787109 C89.81690753 113.86277194 88.10006756 115.36076142 85 118 C84.67 118.33 84.34 118.66 84 119 C81.04904719 119.11660763 78.12119633 119.16802929 75.16918945 119.17700195 C73.77891289 119.18685875 73.77891289 119.18685875 72.36054993 119.19691467 C69.27812631 119.21670398 66.19575158 119.22832415 63.11328125 119.23828125 C62.06256124 119.24235678 61.01184124 119.2464323 59.92928123 119.25063133 C54.36569793 119.27151835 48.80213947 119.28580737 43.23852539 119.29516602 C37.48934636 119.30622232 31.74055526 119.34060594 25.99151325 119.38033772 C21.57426736 119.40648255 17.15711405 119.41485609 12.73979759 119.41844749 C10.62071304 119.42332074 8.50163281 119.43495562 6.38262367 119.45348549 C3.41403155 119.47782603 0.44644452 119.47692075 -2.5222168 119.4699707 C-3.396745 119.48278076 -4.27127319 119.49559082 -5.17230225 119.50878906 C-10.74288797 119.46130201 -13.69326922 118.58731227 -18 115 C-20.94398906 111.34401072 -20.25074545 106.54834617 -20.1953125 102.078125 C-20.19106766 100.78814606 -20.19106766 100.78814606 -20.18673706 99.47210693 C-20.1755615 96.73126179 -20.15046179 93.99074602 -20.125 91.25 C-20.1149668 89.38932764 -20.10584155 87.52865015 -20.09765625 85.66796875 C-20.07563076 81.11185268 -20.04111897 76.55598214 -20 72 C-22.31 72 -24.62 72 -27 72 C-25.29379033 70.11418931 -23.76930541 68.86394934 -21.5625 67.5625 C-16.88733528 64.75778582 -16.88733528 64.75778582 -14.4543457 60.02661133 C-13.48912743 53.44201948 -12.7572903 45.62479846 -16.37548828 39.77685547 C-19.23109091 36.40955994 -22.4250323 33.62999815 -25.83984375 30.84765625 C-28.12737814 28.94763464 -28.9374671 28.15199278 -30.09765625 25.33203125 C-29.97727869 22.457415 -29.47774157 21.68999488 -27.5 19.625 C-26.86707031 18.95597656 -26.23414063 18.28695312 -25.58203125 17.59765625 C-24.72996094 16.74042969 -23.87789063 15.88320312 -23 15 C-21.75390482 13.72786599 -20.5078112 12.45573044 -19.26171875 11.18359375 C-16.59384686 8.47902575 -13.92187139 5.77882283 -11.23046875 3.09765625 C-10.65707764 2.52539307 -10.08368652 1.95312988 -9.49291992 1.36352539 C-6.28397819 -1.56729056 -4.08045201 -1.020113 0 0 Z M71 255 C70.24954494 258.58543666 70.24954494 258.58543666 71 262 C72.44148975 264.18547684 72.44148975 264.18547684 75 265 C78.59471004 265.24838381 78.59471004 265.24838381 82 264 C84.4374243 260.7247111 85.03180925 258.82704037 84.875 254.75 C84.21799254 251.69415972 84.21799254 251.69415972 81 250 C76.00545376 249.07995201 73.92654063 251.07007401 71 255 Z M178 271 C177.67 273.31 177.34 275.62 177 278 C177.99 278.33 178.98 278.66 180 279 C180.99 278.34 181.98 277.68 183 277 C182.80528889 275.05000871 182.80528889 275.05000871 182 273 C180.0162233 271.71563266 180.0162233 271.71563266 178 271 Z " fill="#4F1A64" transform="translate(291,91)"/>
<path d="M0 0 C0.63421875 0.24363281 1.2684375 0.48726562 1.921875 0.73828125 C12.04206691 5.00900224 20.70033618 13.98360006 25 24 C26.20998243 27.47970234 27.32351138 30.98857376 28.4375 34.5 C32.17182297 46.23717181 36.93969355 53.56439169 46.3046875 61.640625 C49.26324589 64.23043553 52.0831766 66.92062041 54.875 69.6875 C55.75929688 70.55761719 56.64359375 71.42773438 57.5546875 72.32421875 C66.79881754 82.43960067 68.32822996 92.31721625 67.875 105.6875 C66.54173662 110.73485424 64.29203974 115.32288569 62 120 C61.34 120 60.68 120 60 120 C59.79890625 120.56460938 59.5978125 121.12921875 59.390625 121.7109375 C57.4682504 124.87529569 54.76519427 126.60137968 51.75 128.625 C51.18925781 129.01945313 50.62851562 129.41390625 50.05078125 129.8203125 C46.49695013 132.2497213 43.13798784 133.83383979 39 135 C38.40832031 134.20335937 37.81664062 133.40671875 37.20703125 132.5859375 C35.57872055 130.39748516 33.93951423 128.21773013 32.29296875 126.04296875 C31.06641467 124.41522491 29.84665895 122.78152293 28.67578125 121.11328125 C24.44850208 115.377382 17.01253275 110.40794071 10 109 C7.24029592 108.93073032 4.50803958 108.9058264 1.75 108.9375 C1.00492187 108.94201172 0.25984375 108.94652344 -0.5078125 108.95117188 C-2.3385764 108.96290754 -4.16929873 108.9808415 -6 109 C-6 107.02 -6 105.04 -6 103 C-7.155 103.0825 -8.31 103.165 -9.5 103.25 C-19.0572879 103.16616414 -25.59977654 96.45970509 -32 90 C-32.66 89.01 -33.32 88.02 -34 87 C-31.47542578 88.00892482 -28.95156495 89.01950652 -26.4296875 90.03515625 C-25.16511719 90.54369141 -25.16511719 90.54369141 -23.875 91.0625 C-23.02679688 91.40410156 -22.17859375 91.74570313 -21.3046875 92.09765625 C-15.05894286 94.54302407 -9.09998312 95.19150172 -2.75 92.625 C2.290403 89.76910565 4.0253986 85.23568553 6 80 C6.47953125 78.83210938 6.47953125 78.83210938 6.96875 77.640625 C9.14985481 71.29926473 9.36869157 64.89512389 9.5 58.25 C9.5306958 57.35047607 9.5613916 56.45095215 9.59301758 55.52416992 C9.59452328 50.11018287 8.89526045 46.59657506 5.39941406 42.37646484 C-2.02548608 35.07332685 -12.94918692 33.77280424 -22.81640625 33.83203125 C-25.94628195 33.9971658 -28.9220794 34.4214435 -32 35 C-32.10957031 35.79664063 -32.21914062 36.59328125 -32.33203125 37.4140625 C-34.01042041 48.63061444 -34.01042041 48.63061444 -37 53 C-39.1875 54.375 -39.1875 54.375 -41 55 C-41.99 54.34 -42.98 53.68 -44 53 C-47.16124829 53.19757802 -49.26329763 53.44112234 -51.8125 55.375 C-54.47206029 59.01439829 -54.3677321 62.6607612 -54 67 C-52.09620516 70.80758968 -50.96611899 72.59745042 -47 74.25 C-41.48137939 77.46919536 -40.68928638 83.46472778 -39.08984375 89.34765625 C-37.03042449 97.99721715 -35.23682847 106.97496113 -38.25 115.5625 C-40.05456847 118.07600608 -41.24752879 119.58444338 -44 121 C-49.00945345 121.50586346 -51.5244375 120.45496567 -55.625 117.625 C-62.48217867 112.88241299 -62.48217867 112.88241299 -70.5625 111.8125 C-71.51253906 111.81894531 -72.46257812 111.82539063 -73.44140625 111.83203125 C-76.1204942 111.89938566 -76.1204942 111.89938566 -79 113 C-81.08718537 111.30485209 -81.92600255 110.42149525 -82.3984375 107.73046875 C-82.32203577 99.44088072 -80.04753595 94.79853052 -74.40234375 88.80859375 C-68.7939604 81.57549768 -70.39846882 70.52950162 -71.453125 61.88671875 C-71.63101613 60.54888666 -71.81327721 59.21162805 -72 57.875 C-73.60379077 46.31357614 -75.03430305 34.69231706 -68.39453125 24.546875 C-63.28559852 18.10388826 -57.39675808 14.75689642 -50.16943359 11.19458008 C-46.1594855 9.20648068 -42.78429442 7.29337199 -39.5 4.1875 C-29.30353753 -5.38559795 -12.42470486 -5.97743154 0 0 Z " fill="#312E2D" transform="translate(211,156)"/>
<path d="M0 0 C2 3 2 3 1.875 5.375 C1 8 1 8 -3 13 C4.59 13 12.18 13 20 13 C17.525 10.03 17.525 10.03 15 7 C15.07281494 3.2136229 15.31070077 1.68929923 18 -1 C22.23433376 -0.92010691 24.37709204 -0.53392111 27.625 2.25 C28.40875 3.1575 29.1925 4.065 30 5 C30.886875 5.86625 31.77375 6.7325 32.6875 7.625 C35 10 35 10 37 13 C39.25615465 13.42678778 39.25615465 13.42678778 41.8671875 13.3359375 C42.83527344 13.34882812 43.80335938 13.36171875 44.80078125 13.375 C46.84246286 13.375 48.88415988 13.36724717 50.92578125 13.3515625 C51.89644531 13.36703125 52.86710937 13.3825 53.8671875 13.3984375 C54.75519043 13.39505371 55.64319336 13.39166992 56.55810547 13.38818359 C59 14 59 14 63 19 C68.28 19.33 73.56 19.66 79 20 C79 49.04 79 78.08 79 108 C49.96 108 20.92 108 -9 108 C-9.33 94.47 -9.66 80.94 -10 67 C-11.95216435 65.04783565 -13.53199953 64.15173355 -16 63 C-15.505 62.505 -15.505 62.505 -15 62 C-13.65209548 55.06441854 -12.56443471 45.99816811 -16.36230469 39.76367188 C-19.21965937 36.39960217 -22.42750096 33.63036394 -25.83984375 30.84765625 C-28.12737814 28.94763464 -28.9374671 28.15199278 -30.09765625 25.33203125 C-29.97727869 22.457415 -29.47774157 21.68999488 -27.5 19.625 C-26.86707031 18.95597656 -26.23414063 18.28695312 -25.58203125 17.59765625 C-24.72996094 16.74042969 -23.87789063 15.88320312 -23 15 C-21.75390482 13.72786599 -20.5078112 12.45573044 -19.26171875 11.18359375 C-16.59384686 8.47902575 -13.92187139 5.77882283 -11.23046875 3.09765625 C-10.65707764 2.52539307 -10.08368652 1.95312988 -9.49291992 1.36352539 C-6.28397819 -1.56729056 -4.08045201 -1.020113 0 0 Z " fill="#C165C5" transform="translate(291,91)"/>
<path d="M0 0 C1.27230469 0.00902344 2.54460937 0.01804687 3.85546875 0.02734375 C5.31919922 0.04474609 5.31919922 0.04474609 6.8125 0.0625 C6.65136719 0.61035156 6.49023438 1.15820312 6.32421875 1.72265625 C3.34353332 15.35189725 7.84033858 30.12858493 11.8125 43.0625 C12.14894531 44.238125 12.48539062 45.41375 12.83203125 46.625 C16.60861026 59.43601006 21.60564427 71.77309051 26.8125 84.0625 C27.17279297 84.91634277 27.53308594 85.77018555 27.90429688 86.64990234 C31.54803129 95.10707286 34.8674701 102.23395663 43.8125 106.0625 C47.31893538 107.23131179 50.06151468 107.18248427 53.76245117 107.17602539 C54.46514633 107.17617142 55.16784149 107.17631744 55.89183044 107.1764679 C58.21307468 107.17577157 60.53423854 107.16799226 62.85546875 107.16015625 C64.4654384 107.15829108 66.07540861 107.15686764 67.68537903 107.15586853 C71.92192147 107.15205118 76.1584296 107.14222755 80.3949585 107.13116455 C84.71837907 107.12093364 89.04180519 107.11636731 93.36523438 107.11132812 C101.84767199 107.10060459 110.33008173 107.08353753 118.8125 107.0625 C118.08232666 105.41338623 118.08232666 105.41338623 117.33740234 103.73095703 C115.3620973 98.97896638 115.16131337 95.12633284 115.8125 90.0625 C117.83881579 85.54934211 117.83881579 85.54934211 120.8125 84.0625 C122.6875 83.9296875 122.6875 83.9296875 124.8125 83.9375 C125.864375 83.93363281 125.864375 83.93363281 126.9375 83.9296875 C128.8125 84.0625 128.8125 84.0625 130.8125 85.0625 C130.8125 85.7225 130.8125 86.3825 130.8125 87.0625 C130.02875 87.35125 129.245 87.64 128.4375 87.9375 C125.71578368 88.91162254 125.71578368 88.91162254 123.8125 91.0625 C123.16417617 96.46519859 124.34322979 99.77826897 126.9375 104.36328125 C127.8125 106.0625 127.8125 106.0625 127.8125 108.0625 C213.9425 108.0625 300.0725 108.0625 388.8125 108.0625 C388.8125 109.0525 388.8125 110.0425 388.8125 111.0625 C223.8125 111.0625 58.8125 111.0625 -111.1875 111.0625 C-111.1875 109.7425 -111.1875 108.4225 -111.1875 107.0625 C-81.8175 107.0625 -52.4475 107.0625 -22.1875 107.0625 C-22.5175 106.0725 -22.8475 105.0825 -23.1875 104.0625 C-23.29918927 101.35692162 -23.35516367 98.67642705 -23.36450195 95.97021484 C-23.37107315 95.14542633 -23.37764435 94.32063782 -23.38441467 93.47085571 C-23.40414029 90.73838203 -23.41581069 88.00596338 -23.42578125 85.2734375 C-23.42985678 84.33862171 -23.4339323 83.40380592 -23.43813133 82.44066238 C-23.45899225 77.48957795 -23.473292 72.53852122 -23.48266602 67.58740234 C-23.49371045 62.48649339 -23.52808758 57.38602307 -23.56783772 52.28526878 C-23.59405573 48.35258199 -23.60236261 44.4199987 -23.60594749 40.48723221 C-23.61080266 38.60786615 -23.62238597 36.72850438 -23.64098549 34.84922409 C-23.83068653 14.40578572 -23.83068653 14.40578572 -16.93359375 6.46875 C-16.17175781 5.8396875 -15.40992187 5.210625 -14.625 4.5625 C-13.86058594 3.9128125 -13.09617187 3.263125 -12.30859375 2.59375 C-8.30218201 -0.29853987 -4.79932576 -0.04403051 0 0 Z " fill="#322E2E" transform="translate(111.1875,281.9375)"/>
<path d="M0 0 C3.8767099 2.73774951 6.60580042 5.17170852 8.578125 9.57421875 C9.04039983 12.89329913 9.05289043 16.16468679 9.015625 19.51171875 C9.00877686 20.4452417 9.00192871 21.37876465 8.99487305 22.34057617 C8.75562322 32.74659972 7.02777085 44.68868937 -0.421875 52.57421875 C-4.85870577 55.97968096 -9.43729663 57.22823452 -14.9921875 56.96875 C-21.85061403 55.85508267 -28.34281652 52.86019631 -34.421875 49.57421875 C-26.46273605 58.31409067 -19.20578256 62.92594775 -7.421875 64.57421875 C-5.8312169 76.22751829 -5.8312169 76.22751829 -7.984375 81.13671875 C-11.91274953 85.06509328 -14.63143733 87.31005582 -20.234375 88.13671875 C-25.3225013 87.86431428 -29.31628131 85.43120405 -33.421875 82.57421875 C-35.03835937 81.47400391 -35.03835937 81.47400391 -36.6875 80.3515625 C-39.421875 77.57421875 -39.421875 77.57421875 -39.8671875 74.18359375 C-39.76148438 72.91 -39.65578125 71.63640625 -39.546875 70.32421875 C-39.07381402 61.23741735 -40.9950276 53.28075524 -43.421875 44.57421875 C-43.65849854 43.57890137 -43.65849854 43.57890137 -43.89990234 42.56347656 C-44.31857184 40.87588996 -44.86138107 39.22014683 -45.421875 37.57421875 C-48.30506275 36.3908648 -48.30506275 36.3908648 -51.421875 35.57421875 C-54.5673089 32.17374967 -56.32152534 29.90385172 -56.671875 25.26171875 C-56.34392118 20.4243999 -54.92201235 18.12608497 -51.609375 14.69921875 C-48.56563668 13.13386761 -46.69783223 13.82347855 -43.421875 14.57421875 C-42.101875 14.57421875 -40.781875 14.57421875 -39.421875 14.57421875 C-36.32975324 8.49064896 -34.85488264 3.39408904 -34.421875 -3.42578125 C-22.99017809 -7.67943591 -10.45014028 -6.15209871 0 0 Z " fill="#EEAB77" transform="translate(212.421875,194.42578125)"/>
<path d="M0 0 C0.95068359 -0.02900391 1.90136719 -0.05800781 2.88085938 -0.08789062 C7.32491318 -0.12826288 9.93151499 -0.1486984 13.79296875 2.20703125 C16.83533358 5.5881336 16.81467783 7.57073343 16.8293457 12.04394531 C16.83989738 13.8465683 16.83989738 13.8465683 16.85066223 15.68560791 C16.85482651 16.99076355 16.85899078 18.29591919 16.86328125 19.640625 C16.87370522 20.99103579 16.88512773 22.34143921 16.89750671 23.6918335 C16.94994092 29.43042607 16.99791695 35.16888804 17.01342773 40.90771484 C17.02353757 44.41809617 17.0529396 47.92787028 17.09474754 51.43801117 C17.11297472 53.41979684 17.11041417 55.40173862 17.10749817 57.38360596 C17.17353381 66.16062686 17.17353381 66.16062686 21.6875 73.3125 C22.39390625 74.08335937 23.1003125 74.85421875 23.828125 75.6484375 C24.52421875 76.32132812 25.2203125 76.99421875 25.9375 77.6875 C26.64390625 78.37585938 27.3503125 79.06421875 28.078125 79.7734375 C28.87476563 80.53527344 28.87476563 80.53527344 29.6875 81.3125 C26.6875 81.3125 26.6875 81.3125 24.71484375 79.59765625 C23.68037109 78.49744141 23.68037109 78.49744141 22.625 77.375 C19.95049207 74.44815586 19.95049207 74.44815586 16.6875 72.3125 C17.0175 73.3025 17.3475 74.2925 17.6875 75.3125 C17.82983399 79.429184 17.72016689 83.53722046 17.61035156 87.65429688 C17.57853971 89.00597617 17.5573203 90.35794769 17.546875 91.70996094 C17.53157787 93.66894955 17.4810159 95.6275617 17.4296875 97.5859375 C17.4076123 98.75560059 17.38553711 99.92526367 17.36279297 101.13037109 C16.50440753 105.17527194 14.78756756 106.67326142 11.6875 109.3125 C11.3575 109.6425 11.0275 109.9725 10.6875 110.3125 C7.73654719 110.42910763 4.80869633 110.48052929 1.85668945 110.48950195 C0.46641289 110.49935875 0.46641289 110.49935875 -0.95195007 110.50941467 C-4.03437369 110.52920398 -7.11674842 110.54082415 -10.19921875 110.55078125 C-11.24993876 110.55485678 -12.30065876 110.5589323 -13.38321877 110.56313133 C-18.94680207 110.58401835 -24.51036053 110.59830737 -30.07397461 110.60766602 C-35.82315364 110.61872232 -41.57194474 110.65310594 -47.32098675 110.69283772 C-51.73823264 110.71898255 -56.15538595 110.72735609 -60.57270241 110.73094749 C-62.69178696 110.73582074 -64.81086719 110.74745562 -66.92987633 110.76598549 C-69.89846845 110.79032603 -72.86605548 110.78942075 -75.8347168 110.7824707 C-76.709245 110.79528076 -77.58377319 110.80809082 -78.48480225 110.82128906 C-84.05538797 110.77380201 -87.00576922 109.89981227 -91.3125 106.3125 C-94.25648906 102.65651072 -93.56324545 97.86084617 -93.5078125 93.390625 C-93.50356766 92.10064606 -93.50356766 92.10064606 -93.49923706 90.78460693 C-93.4880615 88.04376179 -93.46296179 85.30324602 -93.4375 82.5625 C-93.4274668 80.70182764 -93.41834155 78.84115015 -93.41015625 76.98046875 C-93.38813076 72.42435268 -93.35361897 67.86848214 -93.3125 63.3125 C-95.6225 63.3125 -97.9325 63.3125 -100.3125 63.3125 C-97.9352567 60.68502056 -95.33566819 59.12640092 -92.3125 57.3125 C-90.56100835 55.73004725 -90.56100835 55.73004725 -89.3125 54.3125 C-86.39732708 55.38651108 -84.53439824 56.09060176 -82.3125 58.3125 C-82.3125 71.8425 -82.3125 85.3725 -82.3125 99.3125 C-53.2725 99.3125 -24.2325 99.3125 5.6875 99.3125 C5.6875 70.2725 5.6875 41.2325 5.6875 11.3125 C0.4075 11.3125 -4.8725 11.3125 -10.3125 11.3125 C-11.6325 9.6625 -12.9525 8.0125 -14.3125 6.3125 C-11.60271707 -1.23618101 -7.27654391 0.0731066 0 0 Z " fill="#362F32" transform="translate(364.3125,99.6875)"/>
<path d="M0 0 C1.051875 -0.00386719 1.051875 -0.00386719 2.125 -0.0078125 C4 0.125 4 0.125 6 1.125 C6 1.785 6 2.445 6 3.125 C5.21625 3.41375 4.4325 3.7025 3.625 4 C0.90328368 4.97412254 0.90328368 4.97412254 -1 7.125 C-1.64832383 12.52769859 -0.46927021 15.84076897 2.125 20.42578125 C3 22.125 3 22.125 3 24.125 C89.13 24.125 175.26 24.125 264 24.125 C264 25.115 264 26.105 264 27.125 C221.67990007 27.14788039 179.35980086 27.16550537 137.03969597 27.17606533 C132.04534418 27.17731606 127.0509924 27.17861038 122.05664062 27.17993164 C121.06233977 27.18019395 120.06803891 27.18045626 119.04360773 27.18072652 C102.93630856 27.18507984 86.82901296 27.19296554 70.72171591 27.2021528 C54.19864584 27.21149872 37.67557764 27.21705761 21.15250504 27.21908849 C10.95390463 27.22046176 0.7553143 27.22480181 -9.44328301 27.23291647 C-16.4333672 27.23819549 -23.42344617 27.23980165 -30.41353221 27.23850138 C-34.44861337 27.23785982 -38.48367692 27.23885508 -42.51875496 27.24420547 C-46.21252242 27.2490676 -49.9062604 27.24932009 -53.60002922 27.24589889 C-55.56997624 27.24527557 -57.53992292 27.24959211 -59.50986493 27.25408131 C-61.26774045 27.25109474 -61.26774045 27.25109474 -63.06112862 27.24804783 C-64.57507357 27.24861741 -64.57507357 27.24861741 -66.11960328 27.2491985 C-69.14829417 27.11860577 -72.02269648 26.68257128 -75 26.125 C-75 25.465 -75 24.805 -75 24.125 C-40.845 23.63 -40.845 23.63 -6 23.125 C-6.99 20.815 -7.98 18.505 -9 16.125 C-9.69211726 11.4430303 -9.57141455 7.39769604 -7.625 3.0625 C-5.21566356 0.18982963 -3.6024314 -0.01324423 0 0 Z " fill="#3C273E" transform="translate(236,365.875)"/>
<path d="M0 0 C-3.81756824 1.37432457 -7.07255329 0.67975039 -11 0 C-6.71 0.99 -2.42 1.98 2 3 C1 5 1 5 -0.703125 5.62109375 C-3.42164845 6.06955765 -5.99557077 6.09529082 -8.75 6.0625 C-9.73484375 6.05347656 -10.7196875 6.04445313 -11.734375 6.03515625 C-12.48203125 6.02355469 -13.2296875 6.01195312 -14 6 C-14 6.66 -14 7.32 -14 8 C-14.62648438 7.9278125 -15.25296875 7.855625 -15.8984375 7.78125 C-16.71570313 7.6884375 -17.53296875 7.595625 -18.375 7.5 C-19.59316406 7.36078125 -19.59316406 7.36078125 -20.8359375 7.21875 C-22.96912825 6.96647649 -22.96912825 6.96647649 -25 7 C-21.7 7.66 -18.4 8.32 -15 9 C-15 9.66 -15 10.32 -15 11 C-17.9219769 12.46098845 -20.49893475 12.11134901 -23.7578125 12.09765625 C-24.75238968 12.09553383 -24.75238968 12.09553383 -25.76705933 12.09336853 C-27.88641863 12.08776754 -30.00567259 12.075215 -32.125 12.0625 C-33.56119639 12.05748512 -34.99739444 12.05292219 -36.43359375 12.04882812 C-39.95576345 12.03779782 -43.47787145 12.02053259 -47 12 C-47.82847262 10.41763424 -48.64845773 8.83082281 -49.46484375 7.2421875 C-49.92238037 6.35901855 -50.37991699 5.47584961 -50.85131836 4.56591797 C-52.38378869 1.14269518 -52.66386808 -1.31184398 -52 -5 C-41.35650556 -19.44474245 -12.05251562 -6.31785093 0 0 Z " fill="#F1AD78" transform="translate(286,378)"/>
<path d="M0 0 C2 3 2 3 1.9375 5.3125 C-0.06057729 11.04032156 -3.95346404 14.04593017 -9 17 C-10.15645952 17.94180346 -11.28073353 18.92410311 -12.375 19.9375 C-12.89835937 20.42089844 -13.42171875 20.90429688 -13.9609375 21.40234375 C-15.20969274 22.94929956 -15.20969274 22.94929956 -14.77612305 24.88134766 C-13.82990681 27.46431855 -12.63630124 28.63459956 -10.62109375 30.49609375 C-9.94755859 31.13740234 -9.27402344 31.77871094 -8.58007812 32.43945312 C-7.15154606 33.77162113 -5.71924216 35.09975587 -4.28320312 36.42382812 C-3.61095703 37.06642578 -2.93871094 37.70902344 -2.24609375 38.37109375 C-1.62404053 38.94786865 -1.0019873 39.52464355 -0.36108398 40.11889648 C1.41593692 42.57485093 1.40569264 44.03267405 1 47 C-1 49 -1 49 -3.62890625 49.5625 C-8.75703617 48.70682131 -11.34053349 45.58675752 -14.9375 42 C-15.61490234 41.35160156 -16.29230469 40.70320313 -16.99023438 40.03515625 C-19.0319879 38.05800279 -21.02148844 36.04032484 -23 34 C-23.6923877 33.30390625 -24.38477539 32.6078125 -25.09814453 31.890625 C-25.7476709 31.20484375 -26.39719727 30.5190625 -27.06640625 29.8125 C-27.65494385 29.20019531 -28.24348145 28.58789062 -28.84985352 27.95703125 C-30 26 -30 26 -29.97216797 23.57714844 C-28.70899272 20.22856032 -26.92897224 18.46004226 -24.37890625 15.953125 C-23.44369141 15.02628906 -22.50847656 14.09945312 -21.54492188 13.14453125 C-21.05564209 12.66967285 -20.5663623 12.19481445 -20.06225586 11.70556641 C-18.56216376 10.24967367 -17.07594752 8.78071804 -15.59179688 7.30859375 C-6.51157553 -1.62789388 -6.51157553 -1.62789388 0 0 Z " fill="#302C2C" transform="translate(291,91)"/>
<path d="M0 0 C-2.1346218 1.4230812 -4.26954909 2.84566554 -6.40625 4.265625 C-8.12104734 5.41226659 -9.82954491 6.56839188 -11.53125 7.734375 C-12.3253125 8.27578125 -13.119375 8.8171875 -13.9375 9.375 C-14.66839844 9.87773437 -15.39929688 10.38046875 -16.15234375 10.8984375 C-18 12 -18 12 -20 12 C-20 12.66 -20 13.32 -20 14 C-21.43359375 15.375 -21.43359375 15.375 -23.4375 17 C-41.82315648 32.83299064 -53.529209 56.02634347 -57 80 C-57.21371287 84.41505653 -57.18511094 88.83023761 -57.1875 93.25 C-57.19974609 94.42691406 -57.21199219 95.60382813 -57.22460938 96.81640625 C-57.23627276 103.8066637 -56.72111305 110.22307004 -55 117 C-54.69320312 118.22847656 -54.38640625 119.45695312 -54.0703125 120.72265625 C-50.63570904 132.85730896 -45.80685741 144.12079242 -38.625 154.5625 C-37 157 -37 157 -37 159 C-36.34 159 -35.68 159 -35 159 C-34.62875 159.680625 -34.2575 160.36125 -33.875 161.0625 C-29.4134466 168.052267 -21.94844226 172.57741247 -15.22265625 177.203125 C-13 179 -13 179 -12 182 C-12.66 182.33 -13.32 182.66 -14 183 C-19.9396464 179.14974249 -25.39705366 174.94637206 -30.625 170.1875 C-31.15770508 169.70756592 -31.69041016 169.22763184 -32.23925781 168.7331543 C-33.53508927 167.53282979 -34.77333541 166.27092568 -36 165 C-36 164.34 -36 163.68 -36 163 C-36.66 163 -37.32 163 -38 163 C-47.43486832 150.96416799 -53.90130168 135.60937545 -58 121 C-58.3196875 119.87980469 -58.639375 118.75960937 -58.96875 117.60546875 C-62.96777666 101.10948377 -62.67360553 82.30451019 -58 66 C-57.80664062 65.29858887 -57.61328125 64.59717773 -57.4140625 63.87451172 C-51.95191011 44.42402309 -41.06760324 25.60924292 -25 13 C-24.23042969 12.34515625 -23.46085937 11.6903125 -22.66796875 11.015625 C-6.50440742 -2.52613032 -6.50440742 -2.52613032 0 0 Z " fill="#6D696B" transform="translate(82,177)"/>
<path d="M0 0 C4.16162543 0.2448015 6.41155817 0.49562129 9.625 3.25 C10.800625 4.61125 10.800625 4.61125 12 6 C12.886875 6.86625 13.77375 7.7325 14.6875 8.625 C17 11 17 11 19 14 C19.99 14.66 20.98 15.32 22 16 C22 16.66 22 17.32 22 18 C22.825 18.763125 23.65 19.52625 24.5 20.3125 C27 23 27 23 27.44604492 25.33666992 C26.8141108 29.1099427 25.04295193 30.6041276 22.36328125 33.30078125 C21.88682663 33.7820195 21.41037201 34.26325775 20.91947937 34.75907898 C19.91087423 35.77107978 18.89595414 36.77682082 17.87524414 37.77661133 C16.317452 39.3076331 14.78812661 40.86348791 13.25976562 42.42382812 C12.27503663 43.40525296 11.28875766 44.38512558 10.30078125 45.36328125 C9.40528564 46.25313721 8.50979004 47.14299316 7.5871582 48.05981445 C5 50 5 50 2.29370117 50.41479492 C0 50 0 50 -2 48 C-2.11934005 44.17634466 -1.82967877 42.0955008 0.49658203 39.02392578 C2.45377619 36.95605242 4.47648155 35.00019627 6.5625 33.0625 C7.27341797 32.37865234 7.98433594 31.69480469 8.71679688 30.99023438 C10.46503967 29.31239062 12.22569351 27.6501846 14 26 C9.75355838 20.82893739 5.26965516 16.54104942 0.07421875 12.30859375 C-2.44489863 9.50483034 -2.84775485 7.73000625 -3 4 C-1.5625 1.625 -1.5625 1.625 0 0 Z " fill="#322D2E" transform="translate(309,90)"/>
<path d="M0 0 C5.1209587 3.37983274 9.49192373 6.8985118 13 12 C13 12.66 13 13.32 13 14 C13.99 14.33 14.98 14.66 16 15 C33.96051404 37.38095097 42.21385347 65.64905693 42.25 93.9375 C42.25167175 94.62642334 42.25334351 95.31534668 42.25506592 96.02514648 C42.25698916 109.2462867 40.73000425 121.28555072 37 134 C38.32 134.33 39.64 134.66 41 135 C40.505 138.96 40.505 138.96 40 143 C39.01 142.01 39.01 142.01 38 141 C38.33 140.01 38.66 139.02 39 138 C37.35 137.67 35.7 137.34 34 137 C33.79146563 131.05340699 34.49589686 126.00209613 35.9375 120.25 C38.47086968 109.49859936 39.33860347 99.0449228 39 88 C38.98324219 87.20980469 38.96648437 86.41960937 38.94921875 85.60546875 C38.58889533 79.06817246 37.16664463 72.79576367 35.6875 66.4375 C35.48680908 65.56303223 35.28611816 64.68856445 35.0793457 63.78759766 C32.89617371 54.76562458 29.40105687 46.40705012 25.25 38.125 C24.91073486 37.44735596 24.57146973 36.76971191 24.22192383 36.0715332 C18.83158735 25.48557701 18.83158735 25.48557701 11.33203125 16.42578125 C10 15 10 15 9.59765625 13.1015625 C8.71728585 10.00588096 6.76223551 8.55057408 4.4375 6.375 C2.92337393 4.95299705 1.43506852 3.50174847 0 2 C0 1.34 0 0.68 0 0 Z " fill="#4E3F4E" transform="translate(383,169)"/>
<path d="M0 0 C1.051875 -0.00386719 1.051875 -0.00386719 2.125 -0.0078125 C4 0.125 4 0.125 6 1.125 C6 1.785 6 2.445 6 3.125 C5.21625 3.41375 4.4325 3.7025 3.625 4 C0.90328368 4.97412254 0.90328368 4.97412254 -1 7.125 C-1.64832383 12.52769859 -0.46927021 15.84076897 2.125 20.42578125 C3 22.125 3 22.125 3 24.125 C1.865625 24.269375 0.73125 24.41375 -0.4375 24.5625 C-3.80777201 24.73671478 -3.80777201 24.73671478 -5 26.125 C-6.96158745 26.25393018 -8.92776204 26.31352046 -10.89331055 26.34619141 C-12.78614021 26.38095078 -12.78614021 26.38095078 -14.71720886 26.41641235 C-16.10704162 26.43672885 -17.4968784 26.45677207 -18.88671875 26.4765625 C-20.30581603 26.49967647 -21.72490884 26.52306679 -23.14399719 26.54672241 C-26.12582446 26.59526258 -29.10767959 26.64016928 -32.08959961 26.68261719 C-35.90165015 26.73720672 -39.713477 26.80108744 -43.52533245 26.86779213 C-46.4601741 26.91804152 -49.39507845 26.96309479 -52.33002663 27.00663376 C-53.73459279 27.028127 -55.13913484 27.05126266 -56.54364586 27.0760994 C-58.51558499 27.11022646 -60.48765425 27.1365608 -62.4597168 27.16259766 C-63.58033005 27.17956696 -64.7009433 27.19653625 -65.85551453 27.21401978 C-68.99277037 27.12520467 -71.92119857 26.71628855 -75 26.125 C-75 25.465 -75 24.805 -75 24.125 C-40.845 23.63 -40.845 23.63 -6 23.125 C-6.99 20.815 -7.98 18.505 -9 16.125 C-9.69211726 11.4430303 -9.57141455 7.39769604 -7.625 3.0625 C-5.21566356 0.18982963 -3.6024314 -0.01324423 0 0 Z " fill="#332F2E" transform="translate(236,365.875)"/>
<path d="M0 0 C0.66 0.33 1.32 0.66 2 1 C2.04898437 2.18335938 2.09796875 3.36671875 2.1484375 4.5859375 C2.69474641 16.90998641 2.69474641 16.90998641 5 29 C5.29003906 30.12019531 5.58007812 31.24039062 5.87890625 32.39453125 C9.21060841 44.66303449 14.14087247 56.04479685 21.375 66.5625 C23 69 23 69 23 71 C23.66 71 24.32 71 25 71 C25.37125 71.680625 25.7425 72.36125 26.125 73.0625 C30.5865534 80.052267 38.05155774 84.57741247 44.77734375 89.203125 C47 91 47 91 48 94 C47.01 94.495 47.01 94.495 46 95 C40.0603536 91.14974249 34.60294634 86.94637206 29.375 82.1875 C28.84229492 81.70756592 28.30958984 81.22763184 27.76074219 80.7331543 C26.46491073 79.53282979 25.22666459 78.27092568 24 77 C24 76.34 24 75.68 24 75 C23.34 75 22.68 75 22 75 C5.94892093 54.52402886 -2.59049711 26.75381853 -1 1 C-0.67 0.67 -0.34 0.34 0 0 Z " fill="#4A4446" transform="translate(22,265)"/>
<path d="M0 0 C0.33 0 0.66 0 1 0 C1.01981934 1.08941895 1.03963867 2.17883789 1.06005859 3.30126953 C1.13639058 7.36057833 1.22506461 11.41954153 1.31738281 15.47851562 C1.35555888 17.23202671 1.39043124 18.98561308 1.421875 20.73925781 C1.46777359 23.26654886 1.5257257 25.79332678 1.5859375 28.3203125 C1.59748871 29.09867462 1.60903992 29.87703674 1.62094116 30.6789856 C1.73965344 35.10202594 2.11551516 38.91180065 4 43 C8.02134991 44.34044997 11.89629162 44.14742169 16.08959961 44.14526367 C17.01995529 44.14862228 17.95031097 44.1519809 18.90885925 44.15544128 C21.99003426 44.1649548 25.07115496 44.16689454 28.15234375 44.16796875 C30.29081749 44.17118084 32.42929101 44.17454488 34.56776428 44.17805481 C39.05258697 44.18404693 43.53739039 44.1858946 48.0222168 44.18530273 C53.77365334 44.18520106 59.52496657 44.19885844 65.27637386 44.21607494 C69.69353302 44.22718365 74.11066224 44.2292223 78.52783394 44.22869301 C80.64854927 44.22987463 82.76926535 44.23430657 84.88996696 44.24202538 C87.85373496 44.25180323 90.8172337 44.24895599 93.78100586 44.24291992 C95.09887085 44.25134918 95.09887085 44.25134918 96.44335938 44.25994873 C97.25228134 44.25575424 98.06120331 44.25155975 98.89463806 44.24723816 C99.59499145 44.24778293 100.29534483 44.24832769 101.01692104 44.24888897 C103.34155958 43.95713211 104.97199842 43.14526046 107 42 C107.33 42.66 107.66 43.32 108 44 C105.46537373 46.6198222 103.43527093 47.22837856 99.91482544 47.38768005 C98.21954105 47.40854937 96.52400362 47.41278642 94.82861328 47.40405273 C93.90132416 47.41091599 92.97403503 47.41777924 92.01864624 47.42485046 C88.95237934 47.44315597 85.88662234 47.43927512 82.8203125 47.43359375 C80.68805779 47.43815419 78.55580456 47.44345935 76.42355347 47.44947815 C71.95304395 47.45841697 67.48271299 47.45597782 63.01220703 47.44604492 C57.28659744 47.43456241 51.56160522 47.45475215 45.83607674 47.48396206 C41.43167207 47.50232086 37.02741536 47.50203207 32.62298203 47.49632454 C30.51228851 47.49617124 28.40158502 47.50222242 26.29092789 47.51461601 C23.33695186 47.52951544 20.38411644 47.51885574 17.43017578 47.50170898 C16.56036072 47.51137695 15.69054565 47.52104492 14.79437256 47.53100586 C9.38163083 47.46530859 6.30877733 46.58131355 2 43 C-0.94398906 39.34401072 -0.25074545 34.54834617 -0.1953125 30.078125 C-0.1924826 29.21813904 -0.18965271 28.35815308 -0.18673706 27.47210693 C-0.1755615 24.73126179 -0.15046179 21.99074602 -0.125 19.25 C-0.1149668 17.38932764 -0.10584155 15.52865015 -0.09765625 13.66796875 C-0.07563076 9.11185268 -0.04111897 4.55598214 0 0 Z " fill="#0A0808" transform="translate(271,163)"/>
<path d="M0 0 C5.1209587 3.37983274 9.49192373 6.8985118 13 12 C13 12.66 13 13.32 13 14 C13.99 14.33 14.98 14.66 16 15 C26.89261387 28.5735011 36.08598027 46.78383747 39 64 C38.34 64 37.68 64 37 64 C36.33333333 62.66666667 35.66666667 61.33333333 35 60 C34.6803125 59.38125 34.360625 58.7625 34.03125 58.125 C33.01434735 56.02956424 32.19088715 53.93078246 31.375 51.75 C26.67302518 39.94281879 20.7023858 25.26946482 11.33203125 16.42578125 C10 15 10 15 9.59765625 13.1015625 C8.71728585 10.00588096 6.76223551 8.55057408 4.4375 6.375 C2.92337393 4.95299705 1.43506852 3.50174847 0 2 C0 1.34 0 0.68 0 0 Z " fill="#645163" transform="translate(383,169)"/>
<path d="M0 0 C3.4088837 1.13629457 3.7566282 1.75912151 5.6875 4.625 C8.34293737 8.29976173 11.19055309 11.0453969 14.6484375 13.94921875 C17.62694764 16.54675666 20.44294979 19.28193945 23.25 22.0625 C24.01111084 22.8045166 24.01111084 22.8045166 24.78759766 23.56152344 C34.27162665 33.01735413 36.71981272 41.87789568 37 55 C36.77392575 61.66919048 33.89278557 67.09700952 31 73 C30.34 73 29.68 73 29 73 C28.79890625 73.56460938 28.5978125 74.12921875 28.390625 74.7109375 C26.4682504 77.87529569 23.76519427 79.60137968 20.75 81.625 C19.90888672 82.21667969 19.90888672 82.21667969 19.05078125 82.8203125 C15.49695013 85.2497213 12.13798784 86.83383979 8 88 C11.39106785 84.23474535 15.75619935 81.84002297 19.9921875 79.1328125 C28.16905753 73.3346683 31.61110135 67.28315764 33.3125 57.5625 C34.79038888 45.76650616 32.36974481 37.14120701 25.10546875 27.48046875 C21.41728999 23.21032884 17.37958498 19.47296345 13.08984375 15.8203125 C10.69861074 13.7374815 8.40171795 11.58250572 6.125 9.375 C5.01511719 8.30378906 5.01511719 8.30378906 3.8828125 7.2109375 C1.9074774 4.89135313 0.95791708 2.87375125 0 0 Z " fill="#1C1818" transform="translate(242,203)"/>
<path d="M0 0 C5.69139902 1.09698167 10.74567937 2.54053077 16 5 C15.01 7.97 14.02 10.94 13 14 C8.38 14 3.76 14 -1 14 C-1.08333357 9.1666528 -0.95261487 4.76307437 0 0 Z " fill="#332B2F" transform="translate(304,370)"/>
<path d="M0 0 C0.495 0.99 0.495 0.99 1 2 C-0.134375 2.144375 -1.26875 2.28875 -2.4375 2.4375 C-5.80777201 2.61171478 -5.80777201 2.61171478 -7 4 C-8.96158745 4.12893018 -10.92776204 4.18852046 -12.89331055 4.22119141 C-14.78614021 4.25595078 -14.78614021 4.25595078 -16.71720886 4.29141235 C-18.10704162 4.31172885 -19.4968784 4.33177207 -20.88671875 4.3515625 C-22.30581603 4.37467647 -23.72490884 4.39806679 -25.14399719 4.42172241 C-28.12582446 4.47026258 -31.10767959 4.51516928 -34.08959961 4.55761719 C-37.90165015 4.61220672 -41.713477 4.67608744 -45.52533245 4.74279213 C-48.4601741 4.79304152 -51.39507845 4.83809479 -54.33002663 4.88163376 C-55.73459279 4.903127 -57.13913484 4.92626266 -58.54364586 4.9510994 C-60.51558499 4.98522646 -62.48765425 5.0115608 -64.4597168 5.03759766 C-65.58033005 5.05456696 -66.7009433 5.07153625 -67.85551453 5.08901978 C-70.99277037 5.00020467 -73.92119857 4.59128855 -77 4 C-77 3.34 -77 2.68 -77 2 C-75.70786842 1.9845388 -75.70786842 1.9845388 -74.38963318 1.96876526 C-66.25372189 1.87060495 -58.11787995 1.76806494 -49.98208523 1.66066074 C-45.79984995 1.60560223 -41.61760749 1.55221055 -37.43530273 1.50268555 C-33.39577039 1.4547889 -29.35631762 1.40243886 -25.31688118 1.34705925 C-23.77921607 1.32674974 -22.24152923 1.3080187 -20.703825 1.29092598 C-18.54262359 1.26662738 -16.38156901 1.23661064 -14.22045898 1.20532227 C-12.37846169 1.18200584 -12.37846169 1.18200584 -10.49925232 1.15821838 C-6.94403787 0.99746968 -3.51240759 0.56126164 0 0 Z " fill="#622C5F" transform="translate(238,388)"/>
<path d="M0 0 C2.52457422 1.00892482 5.04843505 2.01950652 7.5703125 3.03515625 C8.41335937 3.37417969 9.25640625 3.71320313 10.125 4.0625 C11.39730469 4.57490234 11.39730469 4.57490234 12.6953125 5.09765625 C16.59615232 6.62493421 19.51042745 7.11164203 23.6875 7.0625 C24.68136719 7.05347656 25.67523438 7.04445312 26.69921875 7.03515625 C27.45847656 7.02355469 28.21773437 7.01195312 29 7 C28.67 7.99 28.34 8.98 28 10 C27.96079185 11.99961564 27.95556653 14.00049364 28 16 C20.10166988 16.56416644 15.48013893 14.83528966 9.34375 9.8359375 C2.57848837 3.86773256 2.57848837 3.86773256 0 0 Z " fill="#3D3631" transform="translate(177,243)"/>
<path d="M0 0 C12.87 0 25.74 0 39 0 C38.67 0.66 38.34 1.32 38 2 C26.12 2 14.24 2 2 2 C2.33 4.97 2.66 7.94 3 11 C3.09673443 12.74092033 3.17208944 14.48338954 3.2109375 16.2265625 C3.23929687 17.1134375 3.26765625 18.0003125 3.296875 18.9140625 C3.34917732 20.728953 3.39338188 22.54409405 3.4296875 24.359375 C3.62565762 29.96085413 4.43787414 33.99905916 7 39 C5.0625 38.625 5.0625 38.625 3 38 C1.51905269 35.03810538 1.64379349 31.94750697 1.46484375 28.69140625 C1.42186661 27.96888168 1.37888947 27.24635712 1.33460999 26.50193787 C1.19814971 24.18901029 1.06786948 21.87577804 0.9375 19.5625 C0.84608432 18.00713901 0.754292 16.4518001 0.66210938 14.89648438 C0 3.58371365 0 3.58371365 0 0 Z " fill="#4D1862" transform="translate(431,350)"/>
<path d="M0 0 C0.66 0 1.32 0 2 0 C0.592896 7.41342792 -1.75857697 14.30682924 -4.33944702 21.38961792 C-5.57988212 24.79564443 -6.80190302 28.20825146 -8.0234375 31.62109375 C-8.2718187 32.31435257 -8.52019989 33.00761139 -8.77610779 33.72187805 C-12.7119338 44.74809836 -16.35128307 55.87612977 -20 67 C-20.99 66.67 -21.98 66.34 -23 66 C-22.54625 65.175 -22.0925 64.35 -21.625 63.5 C-19.83692258 59.64875632 -18.92631097 56.13277201 -18 52 C-17.34 52 -16.68 52 -16 52 C-15.938125 50.96875 -15.87625 49.9375 -15.8125 48.875 C-15.15368762 43.64110166 -13.30069549 38.94013887 -11.47265625 34.015625 C-9.79777675 29.50221758 -8.26933827 24.94270977 -6.75 20.375 C-6.4919458 19.60494629 -6.2338916 18.83489258 -5.96801758 18.04150391 C-5.72591553 17.31366699 -5.48381348 16.58583008 -5.234375 15.8359375 C-5.02006836 15.19188965 -4.80576172 14.5478418 -4.58496094 13.88427734 C-3.98060323 11.9375191 -3.47604295 9.98167995 -3 8 C-2.34 8 -1.68 8 -1 8 C-0.67 5.36 -0.34 2.72 0 0 Z " fill="#3A0350" transform="translate(341,308)"/>
<path d="M0 0 C0.66 0.33 1.32 0.66 2 1 C2.04898437 2.18335938 2.09796875 3.36671875 2.1484375 4.5859375 C2.69359884 16.91019666 2.69359884 16.91019666 5 29 C5.45246094 30.7325 5.45246094 30.7325 5.9140625 32.5 C7.51180574 38.35432637 9.25209505 43.582478 12 49 C12 49.66 12 50.32 12 51 C11.34 51 10.68 51 10 51 C5.62276839 40.15905638 2.40693099 29.44000139 0 18 C-0.33 18 -0.66 18 -1 18 C-1.02684312 15.18743719 -1.04676188 12.37512759 -1.0625 9.5625 C-1.07087891 8.76005859 -1.07925781 7.95761719 -1.08789062 7.13085938 C-1.0965143 5.08704779 -1.0522815 3.04316098 -1 1 C-0.67 0.67 -0.34 0.34 0 0 Z " fill="#39282E" transform="translate(22,265)"/>
<path d="M0 0 C0.33 0 0.66 0 1 0 C1.23074219 1.28132813 1.46148438 2.56265625 1.69921875 3.8828125 C3.47637987 13.41704177 5.51029973 22.39082761 9.046875 31.4453125 C10 34 10 34 10 36 C10.99 36.33 11.98 36.66 13 37 C14.93256291 39.60152699 15.93612625 41.45068576 16.3125 44.6875 C17.36306449 49.74931072 20.21866452 53.69615978 23 58 C16.97627603 55.99209201 13.87374913 47.61480181 11.02783203 42.12451172 C7.1845082 34.36321682 4.33036927 26.41659822 2.0625 18.0625 C1.85085205 17.29405762 1.6392041 16.52561523 1.42114258 15.73388672 C0.06154881 10.37307043 -0.18113888 5.52748031 0 0 Z " fill="#4E464A" transform="translate(22,280)"/>
<path d="M0 0 C0.66 0 1.32 0 2 0 C14 24.38040346 14 24.38040346 14 32 C13.34 32 12.68 32 12 32 C11.33333333 30.66666667 10.66666667 29.33333333 10 28 C9.53013672 27.09121094 9.53013672 27.09121094 9.05078125 26.1640625 C7.92958512 23.85498199 6.99060404 21.51794294 6.0625 19.125 C4.89428558 16.14297899 3.68584577 13.40419025 2.1875 10.5625 C1 8 1 8 2 5 C1.12085312 2.3430809 1.12085312 2.3430809 0 0 Z " fill="#675367" transform="translate(408,201)"/>
<path d="M0 0 C0.66 0.66 1.32 1.32 2 2 C-1.05453477 4.67187701 -2.91096513 5.37182243 -6.95214844 5.34057617 C-7.93286316 5.34034958 -8.91357788 5.34012299 -9.92401123 5.33988953 C-10.97518127 5.32440567 -12.02635132 5.30892181 -13.109375 5.29296875 C-14.19132141 5.28872391 -15.27326782 5.28447906 -16.38800049 5.28010559 C-19.8422539 5.26331845 -23.29592304 5.22566527 -26.75 5.1875 C-29.09243949 5.17245325 -31.43488813 5.15876483 -33.77734375 5.14648438 C-39.51842838 5.11341481 -45.25917245 5.06321466 -51 5 C-51 4.67 -51 4.34 -51 4 C-42.97556104 3.37968975 -34.96404756 2.97850435 -26.91796875 2.78125 C-26.20480499 2.76287582 -25.49164124 2.74450165 -24.75686646 2.72557068 C-21.11602303 2.63225295 -17.47538074 2.54912033 -13.83398438 2.48071289 C-12.46613556 2.44719379 -11.09829648 2.41327498 -9.73046875 2.37890625 C-8.50739014 2.3538501 -7.28431152 2.32879395 -6.02416992 2.30297852 C-2.8235444 2.22108001 -2.8235444 2.22108001 0 0 Z " fill="#181413" transform="translate(377,205)"/>
<path d="M0 0 C0.66 0.33 1.32 0.66 2 1 C-0.88341534 5.21422242 -3.04303419 6.76075855 -8 8 C-8.13277344 8.77085937 -8.26554687 9.54171875 -8.40234375 10.3359375 C-8.57894531 11.33882813 -8.75554687 12.34171875 -8.9375 13.375 C-9.11152344 14.37273437 -9.28554688 15.37046875 -9.46484375 16.3984375 C-10 19 -10 19 -11 21 C0.22 21 11.44 21 23 21 C23 21.33 23 21.66 23 22 C10.46 22 -2.08 22 -15 22 C-14.01 20.35 -13.02 18.7 -12 17 C-11.22607108 14.11972928 -11.22607108 14.11972928 -10.8125 11.1875 C-10.65394531 10.21167969 -10.49539063 9.23585938 -10.33203125 8.23046875 C-10.22246094 7.49441406 -10.11289062 6.75835937 -10 6 C-8.906875 5.7525 -7.81375 5.505 -6.6875 5.25 C-2.94091591 3.97997149 -1.89404734 3.34243648 0 0 Z " fill="#573A61" transform="translate(477,368)"/>
<path d="M0 0 C0.52078125 0.23460937 1.0415625 0.46921875 1.578125 0.7109375 C-0.5564968 2.1340187 -2.69142409 3.55660304 -4.828125 4.9765625 C-6.54292234 6.12320409 -8.25141991 7.27932938 -9.953125 8.4453125 C-10.7471875 8.98671875 -11.54125 9.528125 -12.359375 10.0859375 C-13.09027344 10.58867187 -13.82117188 11.09140625 -14.57421875 11.609375 C-16.421875 12.7109375 -16.421875 12.7109375 -18.421875 12.7109375 C-18.421875 13.3709375 -18.421875 14.0309375 -18.421875 14.7109375 C-20.421875 16.3359375 -20.421875 16.3359375 -22.421875 17.7109375 C-23.081875 17.3809375 -23.741875 17.0509375 -24.421875 16.7109375 C-20.07820965 10.88341132 -15.42631045 6.69432827 -9.171875 3.0859375 C-8.56972168 2.73144531 -7.96756836 2.37695312 -7.34716797 2.01171875 C-4.73716486 0.57552656 -3.00973727 -0.35922671 0 0 Z " fill="#5B5158" transform="translate(80.421875,176.2890625)"/>
<path d="M0 0 C9.22379914 1.31768559 16.85855714 5.70451481 25 10 C24.01 10.33 23.02 10.66 22 11 C22 11.66 22 12.32 22 13 C21.45182617 12.6920752 20.90365234 12.38415039 20.33886719 12.06689453 C17.72995734 10.8768177 15.40490866 10.40081811 12.578125 9.9296875 C11.55332031 9.75566406 10.52851563 9.58164062 9.47265625 9.40234375 C7.87744141 9.14130859 7.87744141 9.14130859 6.25 8.875 C5.17105469 8.69324219 4.09210938 8.51148438 2.98046875 8.32421875 C0.32121479 7.87708755 -2.33888675 7.43590482 -5 7 C-5 6.67 -5 6.34 -5 6 C2.5601226 5.74372466 9.53836369 6.74330336 17 8 C8.585 4.535 8.585 4.535 0 1 C0 0.67 0 0.34 0 0 Z " fill="#6D534B" transform="translate(267,370)"/>
<path d="M0 0 C0.66 0.33 1.32 0.66 2 1 C1.71125 2.175625 1.4225 3.35125 1.125 4.5625 C-0.38635203 11.2988119 -1.15232818 18.15550091 -2 25 C-2.99 25 -3.98 25 -5 25 C-5.27195445 17.92918435 -5.2150072 9.4300144 -2 3 C-1.34 3 -0.68 3 0 3 C0 2.01 0 1.02 0 0 Z " fill="#51494E" transform="translate(26,241)"/>
<path d="M0 0 C0.66 0.33 1.32 0.66 2 1 C0.67267046 2.67145202 -0.66226218 4.33686649 -2 6 C-2.40863281 6.52722656 -2.81726563 7.05445313 -3.23828125 7.59765625 C-6.59318664 11.82504478 -6.59318664 11.82504478 -8.87109375 12.8046875 C-11.98483712 14.55295442 -13.4959428 17.05271203 -15.5625 19.9375 C-20.32506178 26.54726112 -20.32506178 26.54726112 -23 29 C-21.60296901 23.72500368 -19.23924246 20.22639746 -15.875 16.0625 C-15.14228882 15.14162598 -15.14228882 15.14162598 -14.39477539 14.20214844 C-10.66159978 9.6023973 -6.64644993 5.67989518 -2 2 C-1.34 1.34 -0.68 0.68 0 0 Z " fill="#777174" transform="translate(59,188)"/>
<path d="M0 0 C1.051875 -0.00386719 1.051875 -0.00386719 2.125 -0.0078125 C4 0.125 4 0.125 6 1.125 C6 1.785 6 2.445 6 3.125 C-3.42857143 7.125 -3.42857143 7.125 -8 7.125 C-8 10.095 -8 13.065 -8 16.125 C-8.33 16.125 -8.66 16.125 -9 16.125 C-9.56364659 5.37396324 -9.56364659 5.37396324 -6 1.125 C-3.75487738 0.00243869 -2.48543351 -0.00913762 0 0 Z " fill="#45383B" transform="translate(236,365.875)"/>
<path d="M0 0 C0.99 0.495 0.99 0.495 2 1 C2.36303711 3.84814453 2.36303711 3.84814453 2.52734375 7.6328125 C2.59816542 9.01042397 2.66913381 10.3880279 2.74023438 11.765625 C2.84067432 13.93766945 2.93685562 16.10981673 3.02905273 18.28222656 C3.12149905 20.37895711 3.23004451 22.47442914 3.33984375 24.5703125 C3.39519287 25.82602051 3.45054199 27.08172852 3.50756836 28.37548828 C4.06338624 32.46655039 5.22178688 35.29953106 7 39 C5.0625 38.625 5.0625 38.625 3 38 C1.51905269 35.03810538 1.64379349 31.94750697 1.46484375 28.69140625 C1.42186661 27.96888168 1.37888947 27.24635712 1.33460999 26.50193787 C1.19814971 24.18901029 1.06786948 21.87577804 0.9375 19.5625 C0.84608432 18.00713901 0.754292 16.4518001 0.66210938 14.89648438 C0 3.58371365 0 3.58371365 0 0 Z " fill="#3C0352" transform="translate(431,350)"/>
<path d="M0 0 C7.9054868 5.47765964 13.67848421 11.35696842 18 20 C18 20.99 18 21.98 18 23 C17.34 23 16.68 23 16 23 C15.525625 21.88625 15.05125 20.7725 14.5625 19.625 C10.93207664 12.3121042 4.73959891 6.68742074 -1 1 C-0.67 0.67 -0.34 0.34 0 0 Z " fill="#211E1C" transform="translate(218,160)"/>
<path d="M0 0 C9.9 0 19.8 0 30 0 C30 0.33 30 0.66 30 1 C27.50072231 1.33970765 25.00080405 1.67188032 22.5 2 C21.45585937 2.14308594 21.45585937 2.14308594 20.390625 2.2890625 C13.47077063 3.18608066 6.89317873 3.37863575 0 2 C0 1.34 0 0.68 0 0 Z " fill="#8B428D" transform="translate(161,390)"/>
<path d="M0 0 C0.33 0 0.66 0 1 0 C1.53606366 2.9771219 2.05405209 5.95564173 2.5625 8.9375 C2.71396484 9.76830078 2.86542969 10.59910156 3.02148438 11.45507812 C3.99289834 17.2609709 3.8872465 22.17707759 3 28 C0.9575016 24.93625239 0.66758815 23.78556625 0.33203125 20.25390625 C0.24373047 19.33416016 0.15542969 18.41441406 0.06445312 17.46679688 C-0.01869141 16.50837891 -0.10183594 15.54996094 -0.1875 14.5625 C-0.28224609 13.60794922 -0.37699219 12.65339844 -0.47460938 11.66992188 C-1.18741925 3.89430885 -1.18741925 3.89430885 0 0 Z " fill="#1D1A19" transform="translate(140,209)"/>
<path d="M0 0 C3.49107379 1.16369126 3.85222763 1.88973538 5.6875 4.9375 C6.34298828 6.00291016 6.34298828 6.00291016 7.01171875 7.08984375 C8 9 8 9 8 11 C8.66 11 9.32 11 10 11 C11 12.66666667 12 14.33333333 13 16 C14.62836738 17.7041054 16.28769752 19.38025441 18 21 C17.67 21.66 17.34 22.32 17 23 C16.52949219 22.50628906 16.05898438 22.01257813 15.57421875 21.50390625 C14.95160156 20.86324219 14.32898437 20.22257812 13.6875 19.5625 C13.07261719 18.92441406 12.45773438 18.28632813 11.82421875 17.62890625 C9.99355944 15.7778582 9.99355944 15.7778582 7 15 C6.62282419 13.67839972 6.2988783 12.34147704 6 11 C5.02619696 9.24391751 4.00151889 7.51543331 2.9375 5.8125 C0 1.09176471 0 1.09176471 0 0 Z " fill="#363132" transform="translate(37,325)"/>
<path d="M0 0 C0.66 0.33 1.32 0.66 2 1 C2 6.28 2 11.56 2 17 C1.01 17.33 0.02 17.66 -1 18 C-1.02684312 15.18743719 -1.04676188 12.37512759 -1.0625 9.5625 C-1.07087891 8.76005859 -1.07925781 7.95761719 -1.08789062 7.13085938 C-1.0965143 5.08704779 -1.0522815 3.04316098 -1 1 C-0.67 0.67 -0.34 0.34 0 0 Z " fill="#3B3038" transform="translate(22,265)"/>
<path d="M0 0 C0.9590625 0.556875 0.9590625 0.556875 1.9375 1.125 C2.5975 1.455 3.2575 1.785 3.9375 2.125 C3.9375 3.445 3.9375 4.765 3.9375 6.125 C2.9475 6.125 1.9575 6.125 0.9375 6.125 C-1.75017578 8.56250025 -1.75017578 8.56250025 -4.0625 11.125 C-5.0525 10.795 -6.0425 10.465 -7.0625 10.125 C-5.4125 9.135 -3.7625 8.145 -2.0625 7.125 C-2.67527612 4.16324877 -3.31622522 2.74441217 -5.0625 0.125 C-2.0625 -0.875 -2.0625 -0.875 0 0 Z " fill="#420C58" transform="translate(475.0625,360.875)"/>
<path d="M0 0 C0.66 0 1.32 0 2 0 C1.34 3.3 0.68 6.6 0 10 C1.32 10.33 2.64 10.66 4 11 C3.67 13.64 3.34 16.28 3 19 C2.34 18.34 1.68 17.68 1 17 C1.33 16.01 1.66 15.02 2 14 C0.35 13.67 -1.3 13.34 -3 13 C-3 10.36 -3 7.72 -3 5 C-2.34 4.67 -1.68 4.34 -1 4 C-0.34786708 1.97536745 -0.34786708 1.97536745 0 0 Z " fill="#674670" transform="translate(420,293)"/>
<path d="M0 0 C0.66 0 1.32 0 2 0 C0.79262673 7.24423963 0.79262673 7.24423963 -2.6875 10.5625 C-6.72304809 12.31377559 -8.81494248 12.28771001 -13 11 C-14.4375 8.9375 -14.4375 8.9375 -15 7 C-14.319375 7.350625 -13.63875 7.70125 -12.9375 8.0625 C-9.2912211 9.22620603 -6.71510022 8.72845102 -3 8 C-2.01 5.36 -1.02 2.72 0 0 Z " fill="#3D0352" transform="translate(376,346)"/>
<path d="M0 0 C0.99 0.33 1.98 0.66 3 1 C3 2.98 3 4.96 3 7 C2.01 7.33 1.02 7.66 0 8 C-0.33 10.64 -0.66 13.28 -1 16 C-1.33 16 -1.66 16 -2 16 C-2.20674944 10.21101581 -1.59162079 5.57067277 0 0 Z " fill="#4E4350" transform="translate(420,285)"/>
<path d="M0 0 C0.66 0 1.32 0 2 0 C1.84402344 0.67546875 1.68804687 1.3509375 1.52734375 2.046875 C0.70170597 6.67044655 0.6073542 11.33001179 0.37890625 16.015625 C0.25386719 17.00046875 0.12882813 17.9853125 0 19 C-0.66 19.33 -1.32 19.66 -2 20 C-2.0544452 17.79194476 -2.09299283 15.58349446 -2.125 13.375 C-2.14820313 12.14523438 -2.17140625 10.91546875 -2.1953125 9.6484375 C-2.0030428 6.05683959 -1.30258556 3.33338825 0 0 Z " fill="#231F1E" transform="translate(140,186)"/>
<path d="M0 0 C0.66 0.66 1.32 1.32 2 2 C0.71937515 3.7074998 -0.61767557 5.37373596 -2 7 C-2.66 7 -3.32 7 -4 7 C-2.79618552 4.50638429 -1.54571278 2.31856917 0 0 Z M-5 7 C-4.34 7.33 -3.68 7.66 -3 8 C-3.33 11.63 -3.66 15.26 -4 19 C-4.66 19 -5.32 19 -6 19 C-6.02712066 17.56260487 -6.04645067 16.12506137 -6.0625 14.6875 C-6.07410156 13.88699219 -6.08570313 13.08648437 -6.09765625 12.26171875 C-6 10 -6 10 -5 7 Z " fill="#191413" transform="translate(135,246)"/>
<path d="M0 0 C0.66 0.66 1.32 1.32 2 2 C1.6017125 3.29745172 1.18056078 4.5878981 0.75 5.875 C0.51796875 6.59429687 0.2859375 7.31359375 0.046875 8.0546875 C-1.25137839 10.46711358 -2.49377424 11.01615105 -5 12 C-4.55149342 10.18504338 -4.09090429 8.37306866 -3.625 6.5625 C-3.36976562 5.55316406 -3.11453125 4.54382813 -2.8515625 3.50390625 C-2 1 -2 1 0 0 Z " fill="#625C5F" transform="translate(29,232)"/>
<path d="M0 0 C5.61 0.33 11.22 0.66 17 1 C17 1.99 17 2.98 17 4 C11.147205 3.48517081 5.6702363 2.54642808 0 1 C0 0.67 0 0.34 0 0 Z " fill="#B267A4" transform="translate(255,382)"/>
<path d="M0 0 C5.75 0.75 5.75 0.75 8 3 C7.625 5.125 7.625 5.125 7 7 C6.34 5.68 5.68 4.36 5 3 C3.35 3.33 1.7 3.66 0 4 C-0.33 5.65 -0.66 7.3 -1 9 C-1.66 8.67 -2.32 8.34 -3 8 C-2.45276317 4.62537285 -1.9451 2.91765 0 0 Z " fill="#55206A" transform="translate(470,358)"/>
<path d="M0 0 C5.56140755 4.89403864 7.3792054 12.86086211 8 20 C5.16443197 17.16443197 4.22554971 13.69624132 2.875 10 C2.59785156 9.26265625 2.32070313 8.5253125 2.03515625 7.765625 C0 2.27170567 0 2.27170567 0 0 Z " fill="#BC52C0" transform="translate(263,319)"/>
<path d="M0 0 C0.66 0.33 1.32 0.66 2 1 C0.5 4 0.5 4 -2 7 C-4.84663895 7.55411674 -7.06977319 7.29302268 -10 7 C-7.20283196 3.70921407 -3.80471422 1.93694542 0 0 Z " fill="#251F23" transform="translate(274,156)"/>
<path d="M0 0 C2.88437779 1.29299694 4.87219421 2.65941363 7 5 C6.67 5.99 6.34 6.98 6 8 C5.34 7.01 4.68 6.02 4 5 C3.236875 5.165 2.47375 5.33 1.6875 5.5 C-1 6 -1 6 -4 6 C-2.84826645 3.53199953 -1.95216435 1.95216435 0 0 Z " fill="#A47A5A" transform="translate(161,209)"/>
<path d="M0 0 C0.66 0.33 1.32 0.66 2 1 C1 3 1 3 -1.1875 4.25 C-4.69887344 6.43485458 -7.14537739 9.01260424 -10 12 C-10.66 11.67 -11.32 11.34 -12 11 C-8.42270128 6.33867137 -4.89132699 3.26088466 0 0 Z " fill="#B45DB7" transform="translate(130,268)"/>
<path d="M0 0 C0.66 0 1.32 0 2 0 C0.31326082 4.49797113 -1.81673892 8.72886302 -4 13 C-4.66 13 -5.32 13 -6 13 C-4.58707905 8.1725201 -2.57025846 4.2837641 0 0 Z " fill="#595357" transform="translate(36,218)"/>
<path d="M0 0 C1.32 0.33 2.64 0.66 4 1 C4.99 4.63 5.98 8.26 7 12 C3.87855452 8.87855452 1.95105386 6.80455503 0 3 C0 2.01 0 1.02 0 0 Z " fill="#544051" transform="translate(404,196)"/>
<path d="M0 0 C1.98 0.495 1.98 0.495 4 1 C3.67 2.65 3.34 4.3 3 6 C1.68 5.67 0.36 5.34 -1 5 C-0.67 3.35 -0.34 1.7 0 0 Z " fill="#3E3632" transform="translate(210,210)"/>
<path d="M0 0 C0.99 0.33 1.98 0.66 3 1 C3 2.65 3 4.3 3 6 C1.68 6.33 0.36 6.66 -1 7 C-1.04254356 5.00045254 -1.04080783 2.99958364 -1 1 C-0.67 0.67 -0.34 0.34 0 0 Z " fill="#3A3430" transform="translate(189,210)"/>
<path d="M0 0 C0.66 0 1.32 0 2 0 C2.6708712 1.6232687 3.33657029 3.24867578 4 4.875 C4.556875 6.23238281 4.556875 6.23238281 5.125 7.6171875 C6 10 6 10 6 12 C5.34 12 4.68 12 4 12 C3.3291288 10.3767313 2.66342971 8.75132422 2 7.125 C1.62875 6.22007812 1.2575 5.31515625 0.875 4.3828125 C0 2 0 2 0 0 Z " fill="#302427" transform="translate(28,304)"/>
<path d="M0 0 C4.44536093 2.99206986 7.84778899 5.58690458 11 10 C8 10 8 10 5.95703125 8.3203125 C5.24933594 7.59585938 4.54164063 6.87140625 3.8125 6.125 C2.73935547 5.04605469 2.73935547 5.04605469 1.64453125 3.9453125 C0 2 0 2 0 0 Z " fill="#474046" transform="translate(383,169)"/>
<path d="M0 0 C0.33 0 0.66 0 1 0 C1.33 3.63 1.66 7.26 2 11 C1.01 11 0.02 11 -1 11 C-0.67 7.37 -0.34 3.74 0 0 Z " fill="#725F73" transform="translate(423,242)"/>
<path d="M0 0 C2.97 0.99 5.94 1.98 9 3 C9 3.66 9 4.32 9 5 C5.625 4.75 5.625 4.75 2 4 C1.34 2.68 0.68 1.36 0 0 Z " fill="#430958" transform="translate(361,353)"/>
<path d="M0 0 C0.66 0 1.32 0 2 0 C1.67 3.63 1.34 7.26 1 11 C-0.32 10.34 -1.64 9.68 -3 9 C-2.34 8.67 -1.68 8.34 -1 8 C-0.53476937 6.10466658 -0.53476937 6.10466658 -0.375 3.9375 C-0.25125 2.638125 -0.1275 1.33875 0 0 Z " fill="#786C7D" transform="translate(423,275)"/>
<path d="M0 0 C0.66 0 1.32 0 2 0 C2 2.31 2 4.62 2 7 C1.01 7 0.02 7 -1 7 C-1.04254356 5.00045254 -1.04080783 2.99958364 -1 1 C-0.67 0.67 -0.34 0.34 0 0 Z " fill="#5C5359" transform="translate(22,259)"/>
<path d="M0 0 C2.64 0.99 5.28 1.98 8 3 C7.67 3.99 7.34 4.98 7 6 C4.36 4.68 1.72 3.36 -1 2 C-0.67 1.34 -0.34 0.68 0 0 Z " fill="#242121" transform="translate(208,155)"/>
<path d="M0 0 C0.66 0 1.32 0 2 0 C0.87548273 2.9719385 -0.22293791 5.33440687 -2 8 C-2.66 8 -3.32 8 -4 8 C-2.66666667 5.33333333 -1.33333333 2.66666667 0 0 Z " fill="#242121" transform="translate(140,239)"/>
</svg>
