<?xml version="1.0" encoding="UTF-8"?>
<svg version="1.1" xmlns="http://www.w3.org/2000/svg" width="500" height="500">
<path d="M0 0 C165 0 330 0 500 0 C500 165 500 330 500 500 C335 500 170 500 0 500 C0 335 0 170 0 0 Z " fill="#FEFEFE" transform="translate(0,0)"/>
<path d="M0 0 C165 0 330 0 500 0 C500 35.64 500 71.28 500 108 C335 108 170 108 0 108 C0 72.36 0 36.72 0 0 Z " fill="#FFFFFF" transform="translate(0,392)"/>
<path d="M0 0 C12.16538122 8.29011865 17.18409384 19.25161583 21.6796875 32.8125 C23.98648458 39.59646777 26.39822084 46.22873163 31.71875 51.23046875 C32.41355469 51.89046875 33.10835937 52.55046875 33.82421875 53.23046875 C36.53030026 55.67530742 39.27450926 58.07294842 42.02734375 60.46484375 C51.68431821 68.93655575 58.39382818 78.35739425 60.28515625 91.33984375 C60.78365693 100.15204934 57.77056673 110.34348292 52.15234375 117.1875 C47.91706639 121.02879807 43.06163662 124.02620939 38.234375 127.06640625 C35.03000219 128.96541179 35.03000219 128.96541179 32.96875 131.16796875 C33.44183594 132.07933594 33.91492188 132.99070312 34.40234375 133.9296875 C42.75040338 150.19781088 49.6422944 166.9644684 55.96875 184.10546875 C56.2123526 184.7616217 56.4559552 185.41777466 56.7069397 186.09381104 C57.40476406 187.97945994 58.09316532 189.86858776 58.78125 191.7578125 C59.17957031 192.84956787 59.57789063 193.94132324 59.98828125 195.06616211 C60.94731455 198.10015566 61.5288716 201.02053239 61.96875 204.16796875 C62.59241455 204.27028809 63.2160791 204.37260742 63.85864258 204.47802734 C71.89576277 205.86140035 79.75681409 207.77818261 87.65625 209.79296875 C88.9549937 210.12142774 90.25382142 210.44955473 91.55273438 210.77734375 C94.69224389 211.57097441 97.83087339 212.36791094 100.96875 213.16796875 C109.11892783 190.21774934 117.09868263 167.21602319 124.96875 144.16796875 C149.05875 143.83796875 173.14875 143.50796875 197.96875 143.16796875 C199.61875 136.89796875 201.26875 130.62796875 202.96875 124.16796875 C203.29875 124.16796875 203.62875 124.16796875 203.96875 124.16796875 C203.53490452 131.19925753 202.22553003 137.49698375 199.96875 144.16796875 C201.61875 144.16796875 203.26875 144.16796875 204.96875 144.16796875 C202.85197009 152.32581528 200.3470805 160.30785961 197.65625 168.29296875 C197.23106972 169.56156077 196.80602509 170.83019826 196.38110352 172.09887695 C190.97720572 188.20373753 185.46700224 204.27306472 179.96112061 220.34327698 C178.95453844 223.28191794 177.95103927 226.22110093 176.96875 229.16796875 C190.82875 228.83796875 204.68875 228.50796875 218.96875 228.16796875 C217.97875 226.84796875 216.98875 225.52796875 215.96875 224.16796875 C214.80472273 220.67588694 214.75756492 217.77649103 214.65234375 214.09375 C214.61423584 212.84247314 214.57612793 211.59119629 214.53686523 210.30200195 C214.49376221 208.710896 214.45065918 207.11979004 214.40625 205.48046875 C214.261875 200.42734375 214.1175 195.37421875 213.96875 190.16796875 C225.84875 190.16796875 237.72875 190.16796875 249.96875 190.16796875 C249.96875 192.47796875 249.96875 194.78796875 249.96875 197.16796875 C250.87625 197.25046875 251.78375 197.33296875 252.71875 197.41796875 C256.46716035 198.28298652 257.76818285 199.03639243 259.96875 202.16796875 C260.53125 205.10546875 260.53125 205.10546875 259.96875 208.16796875 C257.84375 211.04296875 257.84375 211.04296875 254.96875 213.16796875 C251.65625 213.48046875 251.65625 213.48046875 248.96875 213.16796875 C249.01515625 213.83183594 249.0615625 214.49570312 249.109375 215.1796875 C249.14546875 216.06269531 249.1815625 216.94570313 249.21875 217.85546875 C249.26515625 218.72558594 249.3115625 219.59570312 249.359375 220.4921875 C248.96875 223.16796875 248.96875 223.16796875 244.96875 228.16796875 C257.17875 228.49796875 269.38875 228.82796875 281.96875 229.16796875 C281.96875 229.82796875 281.96875 230.48796875 281.96875 231.16796875 C116.96875 231.16796875 -48.03125 231.16796875 -218.03125 231.16796875 C-218.03125 230.50796875 -218.03125 229.84796875 -218.03125 229.16796875 C-188.00125 229.16796875 -157.97125 229.16796875 -127.03125 229.16796875 C-127.69125 227.84796875 -128.35125 226.52796875 -129.03125 225.16796875 C-129.23716868 222.40494285 -129.33527353 219.74155342 -129.33764648 216.97802734 C-129.34597 216.1546991 -129.35429352 215.33137085 -129.36286926 214.48309326 C-129.38696413 211.76081607 -129.3957427 209.03877879 -129.40234375 206.31640625 C-129.41131367 204.41793752 -129.42043558 202.5194695 -129.42970276 200.6210022 C-129.44619616 196.63810511 -129.45389295 192.65529208 -129.45678711 188.67236328 C-129.46215736 183.58825284 -129.49977962 178.50494205 -129.54553127 173.42105675 C-129.57539985 169.49688905 -129.58251286 165.57291113 -129.58351326 161.64863968 C-129.58769963 159.77567526 -129.60006985 157.90270944 -129.62103081 156.02985764 C-129.83503123 135.24667225 -129.83503123 135.24667225 -122.48216248 127.54550171 C-117.5637522 123.24623233 -114.09015041 121.96711937 -107.65625 121.48046875 C-102.55171553 121.03140688 -102.55171553 121.03140688 -98.14453125 118.625 C-96.94514799 116.82067241 -96.94514799 116.82067241 -96.0078125 114.921875 C-94.35516004 111.95371118 -91.95601567 110.79283857 -89.03125 109.16796875 C-88.37125 109.16796875 -87.71125 109.16796875 -87.03125 109.16796875 C-87.18851563 108.6059375 -87.34578125 108.04390625 -87.5078125 107.46484375 C-88.83085615 101.65924923 -89.05864545 96.15050438 -85.84375 90.98046875 C-84.92905675 89.69312269 -83.99122082 88.42191438 -83.03125 87.16796875 C-78.45410446 80.85379013 -76.83720042 76.81703918 -76.84375 68.98046875 C-76.8427832 67.77922363 -76.8427832 67.77922363 -76.84179688 66.55371094 C-76.88764636 61.27060033 -77.28912341 56.14576659 -78.03125 50.91796875 C-81.04868242 28.76076429 -81.04868242 28.76076429 -74.03125 19.16796875 C-69.26061872 13.49256258 -63.02856036 10.4463273 -56.53515625 7.15673828 C-52.82099288 5.2429021 -49.72643405 3.30320196 -46.65625 0.41796875 C-33.56669089 -11.70096627 -14.25465696 -8.61525014 0 0 Z " fill="#BE66C2" transform="translate(218.03125,160.83203125)"/>
<path d="M0 0 C2 2 2 2 2 4.1875 C1 7 1 7 -5 14 C4.24 13.67 13.48 13.34 23 13 C21.02 11.02 19.04 9.04 17 7 C16.5 3.75 16.5 3.75 17 1 C19 -1 19 -1 21.78515625 -1.03125 C25.42616375 0.1367038 26.68202246 1.6966131 28.98364258 4.66137695 C33.29348787 10.11182949 36.8895779 13.23608466 43.9609375 14.08203125 C49.64708734 14.41875444 55.31575798 14.34165187 61 14 C61.144375 13.360625 61.28875 12.72125 61.4375 12.0625 C62 10 62 10 63 9 C66.24150779 8.7207056 69.49789302 8.7681682 72.75 8.75 C73.6575 8.729375 74.565 8.70875 75.5 8.6875 C84.16888197 8.63680478 84.16888197 8.63680478 88 12 C90.71272664 15.78346435 91.3781942 18.39981723 91.40063477 23.02783203 C91.42064293 24.81460861 91.42064293 24.81460861 91.4410553 26.63748169 C91.44122902 28.55329544 91.44122902 28.55329544 91.44140625 30.5078125 C91.46158326 32.52060594 91.48177046 34.53339934 91.50257015 36.54618645 C91.52820321 39.35815643 91.54075918 42.17012212 91.55297852 44.98217773 C91.57488331 49.91188002 91.60589593 54.8414501 91.65428162 59.77096558 C91.67870711 62.39404073 91.69350981 65.01722616 91.69789124 67.64041138 C91.71317116 69.41773148 91.71317116 69.41773148 91.72875977 71.23095703 C91.73517235 72.79718307 91.73517235 72.79718307 91.74171448 74.39505005 C91.81728348 77.23498003 91.81728348 77.23498003 94 80 C93.34 80 92.68 80 92 80 C91.98541748 80.81678223 91.97083496 81.63356445 91.95581055 82.47509766 C91.88113077 86.1921976 91.78453388 89.90841919 91.6875 93.625 C91.66494141 94.91019531 91.64238281 96.19539063 91.61914062 97.51953125 C91.5659668 99.38544922 91.5659668 99.38544922 91.51171875 101.2890625 C91.48553467 102.43068848 91.45935059 103.57231445 91.43237305 104.74853516 C90.84877429 109.1372242 89.50150218 112.38725772 86.46682739 115.64675903 C82.68105936 117.72353847 79.06503114 117.43415682 74.81274414 117.41992188 C73.88384872 117.42839142 72.95495331 117.43686096 71.99790955 117.44558716 C68.92685257 117.46898925 65.85629565 117.46997856 62.78515625 117.46875 C60.65050556 117.47584952 58.51585679 117.4835482 56.38121033 117.49182129 C51.90651139 117.50527341 47.4319889 117.50683149 42.95727539 117.50097656 C37.2224954 117.4950792 31.48856163 117.52567069 25.75394535 117.56609344 C21.34528541 117.59194004 16.93683005 117.59485061 12.52810478 117.59120178 C10.41378082 117.59289581 8.2994477 117.60256537 6.18519783 117.62034607 C3.2284388 117.64247582 0.2734034 117.63286409 -2.68334961 117.61523438 C-3.55675995 117.62849762 -4.43017029 117.64176086 -5.33004761 117.65542603 C-9.74526119 117.59424143 -11.45550969 117.43516305 -15.01979065 114.58654785 C-18.45212516 110.10323529 -18.13031676 106.52603998 -18.09765625 101.0546875 C-18.0962413 100.1696756 -18.09482635 99.2846637 -18.09336853 98.37283325 C-18.0877614 95.54018809 -18.07520771 92.70762136 -18.0625 89.875 C-18.05748592 87.95703239 -18.05292285 86.03906354 -18.04882812 84.12109375 C-18.03778966 79.41403218 -18.02052025 74.7070294 -18 70 C-20.64 70.33 -23.28 70.66 -26 71 C-23 69 -23 69 -21.0625 68.6875 C-18.04040621 67.6801354 -16.90157018 65.47204123 -15 63 C-14.34 63 -13.68 63 -13 63 C-11.6177624 48.3966501 -11.6177624 48.3966501 -17.21875 35.56640625 C-20.18926318 32.61109917 -23.40916713 29.99962774 -26.84423828 27.60131836 C-28 26 -28 26 -27.95825195 23.13037109 C-26.81755923 19.40401134 -25.37574682 17.78515689 -22.59765625 15.07421875 C-21.70755859 14.19572266 -20.81746094 13.31722656 -19.90039062 12.41210938 C-18.96388672 11.51298828 -18.02738281 10.61386719 -17.0625 9.6875 C-16.12986328 8.76904297 -15.19722656 7.85058594 -14.23632812 6.90429688 C-5.60374389 -1.54102957 -5.60374389 -1.54102957 0 0 Z " fill="#C166C5" transform="translate(290,92)"/>
<path d="M0 0 C12.16538122 8.29011865 17.18409384 19.25161583 21.6796875 32.8125 C23.98648458 39.59646777 26.39822084 46.22873163 31.71875 51.23046875 C32.76095703 52.22046875 32.76095703 52.22046875 33.82421875 53.23046875 C36.53030026 55.67530742 39.27450926 58.07294842 42.02734375 60.46484375 C51.68431821 68.93655575 58.39382818 78.35739425 60.28515625 91.33984375 C60.78315125 100.1431102 57.77912208 110.35675338 52.1484375 117.18359375 C46.50996342 122.31682821 39.20755289 127.75503445 31.96875 130.16796875 C31.37707031 129.37132812 30.78539062 128.5746875 30.17578125 127.75390625 C28.54747055 125.56545391 26.90826423 123.38569888 25.26171875 121.2109375 C24.03516467 119.58319366 22.81540895 117.94949168 21.64453125 116.28125 C17.41725208 110.54535075 9.98128275 105.57590946 2.96875 104.16796875 C0.20904592 104.09869907 -2.52321042 104.07379515 -5.28125 104.10546875 C-6.02632813 104.10998047 -6.77140625 104.11449219 -7.5390625 104.11914062 C-9.3698264 104.13087629 -11.20054873 104.14881025 -13.03125 104.16796875 C-13.03125 102.18796875 -13.03125 100.20796875 -13.03125 98.16796875 C-14.18625 98.25046875 -15.34125 98.33296875 -16.53125 98.41796875 C-26.0885379 98.33413289 -32.63102654 91.62767384 -39.03125 85.16796875 C-39.69125 84.17796875 -40.35125 83.18796875 -41.03125 82.16796875 C-38.50667578 83.17689357 -35.98281495 84.18747527 -33.4609375 85.203125 C-32.19636719 85.71166016 -32.19636719 85.71166016 -30.90625 86.23046875 C-30.05804688 86.57207031 -29.20984375 86.91367188 -28.3359375 87.265625 C-22.09019286 89.71099282 -16.13123312 90.35947047 -9.78125 87.79296875 C-4.740847 84.9370744 -3.0058514 80.40365428 -1.03125 75.16796875 C-0.55171875 74.00007813 -0.55171875 74.00007813 -0.0625 72.80859375 C2.11860481 66.46723348 2.33744157 60.06309264 2.46875 53.41796875 C2.4994458 52.51844482 2.5301416 51.6189209 2.56176758 50.69213867 C2.56327328 45.27815162 1.86401045 41.76454381 -1.63183594 37.54443359 C-9.05673608 30.2412956 -19.98043692 28.94077299 -29.84765625 29 C-32.97753195 29.16513455 -35.9533294 29.58941225 -39.03125 30.16796875 C-39.14082031 30.96460938 -39.25039062 31.76125 -39.36328125 32.58203125 C-41.04167041 43.79858319 -41.04167041 43.79858319 -44.03125 48.16796875 C-46.21875 49.54296875 -46.21875 49.54296875 -48.03125 50.16796875 C-49.02125 49.50796875 -50.01125 48.84796875 -51.03125 48.16796875 C-54.04028791 48.01600121 -54.04028791 48.01600121 -57.03125 49.16796875 C-59.89477162 52.3329137 -60.92721061 54.43969303 -61.53125 58.66796875 C-60.92644026 62.90163695 -59.82070399 64.93807466 -57.03125 68.16796875 C-56.04125 68.58046875 -55.05125 68.99296875 -54.03125 69.41796875 C-48.51262939 72.63716411 -47.72053638 78.63269653 -46.12109375 84.515625 C-44.06167449 93.1651859 -42.26807847 102.14292988 -45.28125 110.73046875 C-47.08581847 113.24397483 -48.27877879 114.75241213 -51.03125 116.16796875 C-56.04070345 116.67383221 -58.5556875 115.62293442 -62.65625 112.79296875 C-69.51342867 108.05038174 -69.51342867 108.05038174 -77.59375 106.98046875 C-78.54378906 106.98691406 -79.49382812 106.99335938 -80.47265625 107 C-83.1517442 107.06735441 -83.1517442 107.06735441 -86.03125 108.16796875 C-88.88446498 103.88814628 -88.76388709 100.19176594 -88.03125 95.16796875 C-86.74273863 92.18628956 -84.99973539 89.73926945 -83.03125 87.16796875 C-78.45410446 80.85379013 -76.83720042 76.81703918 -76.84375 68.98046875 C-76.84310547 68.17963867 -76.84246094 67.37880859 -76.84179688 66.55371094 C-76.88764636 61.27060033 -77.28912341 56.14576659 -78.03125 50.91796875 C-81.04868242 28.76076429 -81.04868242 28.76076429 -74.03125 19.16796875 C-69.26061872 13.49256258 -63.02856036 10.4463273 -56.53515625 7.15673828 C-52.82099288 5.2429021 -49.72643405 3.30320196 -46.65625 0.41796875 C-33.56669089 -11.70096627 -14.25465696 -8.61525014 0 0 Z " fill="#322F2E" transform="translate(218.03125,160.83203125)"/>
<path d="M0 0 C0.33 0 0.66 0 1 0 C0.56615452 7.03128878 -0.74321997 13.329015 -3 20 C-1.35 20 0.3 20 2 20 C-0.11677991 28.15784653 -2.6216695 36.13989086 -5.3125 44.125 C-5.73768028 45.39359202 -6.16272491 46.66222951 -6.58764648 47.9309082 C-11.99154428 64.03576878 -17.50174776 80.10509597 -23.00762939 96.17530823 C-24.01421156 99.11394919 -25.01771073 102.05313218 -26 105 C-12.14 104.67 1.72 104.34 16 104 C15.01 102.68 14.02 101.36 13 100 C11.83597273 96.50791819 11.78881492 93.60852228 11.68359375 89.92578125 C11.64548584 88.67450439 11.60737793 87.42322754 11.56811523 86.1340332 C11.52501221 84.54292725 11.48190918 82.95182129 11.4375 81.3125 C11.2209375 73.7328125 11.2209375 73.7328125 11 66 C22.88 66 34.76 66 47 66 C47 68.31 47 70.62 47 73 C47.9075 73.0825 48.815 73.165 49.75 73.25 C53.49841035 74.11501777 54.79943285 74.86842368 57 78 C57.5625 80.9375 57.5625 80.9375 57 84 C54.875 86.875 54.875 86.875 52 89 C48.6875 89.3125 48.6875 89.3125 46 89 C46.04640625 89.66386719 46.0928125 90.32773437 46.140625 91.01171875 C46.17671875 91.89472656 46.2128125 92.77773438 46.25 93.6875 C46.29640625 94.55761719 46.3428125 95.42773438 46.390625 96.32421875 C46 99 46 99 42 104 C54.21 104.33 66.42 104.66 79 105 C79 105.33 79 105.66 79 106 C-23.3 106 -125.6 106 -231 106 C-231 105.67 -231 105.34 -231 105 C-217.8 104.67 -204.6 104.34 -191 104 C-191.99 101.69 -192.98 99.38 -194 97 C-194.69211726 92.3180303 -194.57141455 88.27269604 -192.625 83.9375 C-191 82 -191 82 -189 81 C-187.125 80.8671875 -187.125 80.8671875 -185 80.875 C-183.948125 80.87113281 -183.948125 80.87113281 -182.875 80.8671875 C-181 81 -181 81 -179 82 C-179 82.66 -179 83.32 -179 84 C-179.78375 84.28875 -180.5675 84.5775 -181.375 84.875 C-184.09671632 85.84912254 -184.09671632 85.84912254 -186 88 C-186.64832383 93.40269859 -185.46927021 96.71576897 -182.875 101.30078125 C-182 103 -182 103 -182 105 C-171.44 104.67 -160.88 104.34 -150 104 C-150 103.34 -150 102.68 -150 102 C-151.010625 102.061875 -152.02125 102.12375 -153.0625 102.1875 C-157.55499372 101.97357173 -160.01085961 100.95386468 -164 99 C-160.92478317 97.46239158 -158.65324882 98.63400764 -155.375 99.4375 C-154.18648438 99.72496094 -152.99796875 100.01242187 -151.7734375 100.30859375 C-150.85820312 100.53675781 -149.94296875 100.76492188 -149 101 C-149 100.34 -149 99.68 -149 99 C-127.37408088 97.40441176 -127.37408088 97.40441176 -118 99 C-118.020625 97.783125 -118.04125 96.56625 -118.0625 95.3125 C-118.12011816 91.91302863 -117.69466026 89.47330128 -117 86 C-112.05 86.99 -107.1 87.98 -102 89 C-93.85354828 66.04838335 -85.87010218 43.04815639 -78 20 C-53.91 19.67 -29.82 19.34 -5 19 C-2.525 9.595 -2.525 9.595 0 0 Z " fill="#501B63" transform="translate(421,285)"/>
<path d="M0 0 C-0.16113281 0.54785156 -0.32226562 1.09570312 -0.48828125 1.66015625 C-3.46896668 15.28939725 1.02783858 30.06608493 5 43 C5.33644531 44.175625 5.67289062 45.35125 6.01953125 46.5625 C9.79611026 59.37351006 14.79314427 71.71059051 20 84 C20.36029297 84.85384277 20.72058594 85.70768555 21.09179688 86.58740234 C24.72536984 95.02098796 28.02802853 102.28304039 37 106 C39.35347976 106.86524991 41.53839257 107.47625374 44 108 C44 108.33 44 108.66 44 109 C-9.46 109 -62.92 109 -118 109 C-118 108.67 -118 108.34 -118 108 C-87.97 108 -57.94 108 -27 108 C-27.66 106.68 -28.32 105.36 -29 104 C-29.20591868 101.2369741 -29.30402353 98.57358467 -29.30639648 95.81005859 C-29.31472 94.98673035 -29.32304352 94.1634021 -29.33161926 93.31512451 C-29.35571413 90.59284732 -29.3644927 87.87081004 -29.37109375 85.1484375 C-29.38006367 83.24996877 -29.38918558 81.35150075 -29.39845276 79.45303345 C-29.41494616 75.47013636 -29.42264295 71.48732333 -29.42553711 67.50439453 C-29.43090736 62.42028409 -29.46852962 57.3369733 -29.51428127 52.253088 C-29.54414985 48.3289203 -29.55126286 44.40494238 -29.55226326 40.48067093 C-29.55644963 38.60770651 -29.56881985 36.73474069 -29.58978081 34.86188889 C-29.80378123 14.0787035 -29.80378123 14.0787035 -22.45091248 6.37753296 C-15.18447025 0.02580733 -9.22912676 -0.16128571 0 0 Z " fill="#322F2F" transform="translate(118,282)"/>
<path d="M0 0 C3.8767099 2.73774951 6.60580042 5.17170852 8.578125 9.57421875 C9.04039983 12.89329913 9.05289043 16.16468679 9.015625 19.51171875 C9.00877686 20.4452417 9.00192871 21.37876465 8.99487305 22.34057617 C8.75562322 32.74659972 7.02777085 44.68868937 -0.421875 52.57421875 C-4.85870577 55.97968096 -9.43729663 57.22823452 -14.9921875 56.96875 C-21.85061403 55.85508267 -28.34281652 52.86019631 -34.421875 49.57421875 C-26.46273605 58.31409067 -19.20578256 62.92594775 -7.421875 64.57421875 C-5.8312169 76.22751829 -5.8312169 76.22751829 -7.984375 81.13671875 C-11.91274953 85.06509328 -14.63143733 87.31005582 -20.234375 88.13671875 C-25.3225013 87.86431428 -29.31628131 85.43120405 -33.421875 82.57421875 C-35.03835937 81.47400391 -35.03835937 81.47400391 -36.6875 80.3515625 C-39.421875 77.57421875 -39.421875 77.57421875 -39.8671875 74.18359375 C-39.76148438 72.91 -39.65578125 71.63640625 -39.546875 70.32421875 C-39.07381402 61.23741735 -40.9950276 53.28075524 -43.421875 44.57421875 C-43.65849854 43.57890137 -43.65849854 43.57890137 -43.89990234 42.56347656 C-44.31857184 40.87588996 -44.86138107 39.22014683 -45.421875 37.57421875 C-48.30506275 36.3908648 -48.30506275 36.3908648 -51.421875 35.57421875 C-54.53170295 32.21224259 -56.2942004 29.90203458 -56.734375 25.32421875 C-56.3668364 20.91375554 -55.18906754 18.97391244 -52.421875 15.57421875 C-49.421875 13.57421875 -49.421875 13.57421875 -46.484375 13.94921875 C-44.9684375 14.25859375 -44.9684375 14.25859375 -43.421875 14.57421875 C-42.101875 14.57421875 -40.781875 14.57421875 -39.421875 14.57421875 C-36.32975324 8.49064896 -34.85488264 3.39408904 -34.421875 -3.42578125 C-22.99017809 -7.67943591 -10.45014028 -6.15209871 0 0 Z " fill="#EEAB77" transform="translate(212.421875,194.42578125)"/>
<path d="M0 0 C0.91458984 0.00322266 1.82917969 0.00644531 2.77148438 0.00976562 C3.67447266 -0.00634766 4.57746094 -0.02246094 5.5078125 -0.0390625 C14.10710114 -0.04538086 14.10710114 -0.04538086 17.95898438 3.32226562 C20.67214232 7.10534206 21.3371795 9.72227312 21.35961914 14.35009766 C21.3796273 16.13687424 21.3796273 16.13687424 21.40003967 17.95974731 C21.40021339 19.87556107 21.40021339 19.87556107 21.40039062 21.83007812 C21.42056764 23.84287157 21.44075484 25.85566497 21.46155453 27.86845207 C21.48718759 30.68042206 21.49974355 33.49238775 21.51196289 36.30444336 C21.53386769 41.23414565 21.5648803 46.16371572 21.61326599 51.0932312 C21.63769148 53.71630636 21.65249418 56.33949178 21.65687561 58.962677 C21.67215553 60.7399971 21.67215553 60.7399971 21.68774414 62.55322266 C21.69415672 64.1194487 21.69415672 64.1194487 21.70069885 65.71731567 C21.77626785 68.55724565 21.77626785 68.55724565 23.95898438 71.32226562 C23.29898438 71.32226562 22.63898438 71.32226562 21.95898438 71.32226562 C21.94440186 72.13904785 21.92981934 72.95583008 21.91479492 73.79736328 C21.84011515 77.51446323 21.74351826 81.23068482 21.64648438 84.94726562 C21.62392578 86.23246094 21.60136719 87.51765625 21.578125 88.84179688 C21.52495117 90.70771484 21.52495117 90.70771484 21.47070312 92.61132812 C21.44451904 93.7529541 21.41833496 94.89458008 21.39135742 96.07080078 C20.80775866 100.45948982 19.46048656 103.70952335 16.42581177 106.96902466 C12.64004373 109.04580409 9.02401551 108.75642245 4.77172852 108.7421875 C3.8428331 108.75065704 2.91393768 108.75912659 1.95689392 108.76785278 C-1.11416305 108.79125487 -4.18471997 108.79224418 -7.25585938 108.79101562 C-9.39051006 108.79811514 -11.52515884 108.80581383 -13.6598053 108.81408691 C-18.13450424 108.82753903 -22.60902672 108.82909712 -27.08374023 108.82324219 C-32.81852022 108.81734482 -38.552454 108.84793632 -44.28707027 108.88835907 C-48.69573022 108.91420567 -53.10418558 108.91711624 -57.51291084 108.91346741 C-59.6272348 108.91516143 -61.74156792 108.92483099 -63.85581779 108.94261169 C-66.81257682 108.96474145 -69.76761222 108.95512972 -72.72436523 108.9375 C-73.59777557 108.95076324 -74.47118591 108.96402649 -75.37106323 108.97769165 C-79.78627682 108.91650705 -81.49652532 108.75742867 -85.06080627 105.90881348 C-88.49314078 101.42550092 -88.17133239 97.84830561 -88.13867188 92.37695312 C-88.13725693 91.49194122 -88.13584198 90.60692932 -88.13438416 89.69509888 C-88.12877703 86.86245372 -88.11622334 84.02988698 -88.10351562 81.19726562 C-88.09850154 79.27929801 -88.09393848 77.36132917 -88.08984375 75.44335938 C-88.07880528 70.73629781 -88.06153587 66.02929502 -88.04101562 61.32226562 C-90.68101562 61.65226562 -93.32101562 61.98226562 -96.04101562 62.32226562 C-93.04101562 60.32226562 -93.04101562 60.32226562 -91.10351562 60.00976562 C-88.05443393 58.99340506 -86.87082044 56.87092233 -85.04101562 54.32226562 C-80.29101562 55.07226562 -80.29101562 55.07226562 -78.04101562 57.32226562 C-78.04101562 70.85226563 -78.04101562 84.38226563 -78.04101562 98.32226562 C-49.00101562 98.32226562 -19.96101562 98.32226562 9.95898438 98.32226562 C9.95898438 69.28226562 9.95898438 40.24226562 9.95898438 10.32226562 C4.67898438 10.32226562 -0.60101563 10.32226562 -6.04101562 10.32226562 C-9.04101562 7.32226562 -9.04101562 7.32226562 -9.35351562 4.75976562 C-8.63603798 -0.83655997 -4.55539616 0.03698108 0 0 Z " fill="#3B3537" transform="translate(360.041015625,100.677734375)"/>
<path d="M0 0 C-3.81756824 1.37432457 -7.07255329 0.67975039 -11 0 C-6.71 0.99 -2.42 1.98 2 3 C1 5 1 5 -0.703125 5.62109375 C-3.42164845 6.06955765 -5.99557077 6.09529082 -8.75 6.0625 C-9.73484375 6.05347656 -10.7196875 6.04445313 -11.734375 6.03515625 C-12.48203125 6.02355469 -13.2296875 6.01195312 -14 6 C-14 6.66 -14 7.32 -14 8 C-14.62648438 7.9278125 -15.25296875 7.855625 -15.8984375 7.78125 C-16.71570313 7.6884375 -17.53296875 7.595625 -18.375 7.5 C-19.59316406 7.36078125 -19.59316406 7.36078125 -20.8359375 7.21875 C-22.96912825 6.96647649 -22.96912825 6.96647649 -25 7 C-21.7 7.66 -18.4 8.32 -15 9 C-15 9.66 -15 10.32 -15 11 C-17.9219769 12.46098845 -20.49893475 12.11134901 -23.7578125 12.09765625 C-24.75238968 12.09553383 -24.75238968 12.09553383 -25.76705933 12.09336853 C-27.88641863 12.08776754 -30.00567259 12.075215 -32.125 12.0625 C-33.56119639 12.05748512 -34.99739444 12.05292219 -36.43359375 12.04882812 C-39.95576345 12.03779782 -43.47787145 12.02053259 -47 12 C-47.82847262 10.41763424 -48.64845773 8.83082281 -49.46484375 7.2421875 C-49.92238037 6.35901855 -50.37991699 5.47584961 -50.85131836 4.56591797 C-52.38378869 1.14269518 -52.66386808 -1.31184398 -52 -5 C-41.35650556 -19.44474245 -12.05251562 -6.31785093 0 0 Z " fill="#F1AD78" transform="translate(286,378)"/>
<path d="M0 0 C0.66 0.66 1.32 1.32 2 2 C1.73624522 6.17332968 0.35196117 8.13156517 -2.59765625 10.98828125 C-3.31630859 11.69404297 -4.03496094 12.39980469 -4.77539062 13.12695312 C-5.53013672 13.84818359 -6.28488281 14.56941406 -7.0625 15.3125 C-7.82111328 16.05306641 -8.57972656 16.79363281 -9.36132812 17.55664062 C-11.23219159 19.38043834 -13.11174492 21.19424304 -15 23 C-10.82613119 28.03259856 -6.46416049 32.59726381 -1.6171875 36.9921875 C0.68203353 39.19034387 1.92200548 40.52519128 2.4453125 43.7109375 C2 46 2 46 0 48 C-3.86913874 48.57313038 -5.49329233 48.35893501 -8.71655273 46.07568359 C-9.61317627 45.19219238 -10.5097998 44.30870117 -11.43359375 43.3984375 C-11.91578873 42.92435455 -12.3979837 42.45027161 -12.89479065 41.96182251 C-13.90631262 40.95873888 -14.91027788 39.94798397 -15.90698242 38.93017578 C-17.43513375 37.37740437 -18.99485616 35.86246018 -20.56054688 34.34765625 C-21.54115857 33.36667415 -22.5197476 32.38366507 -23.49609375 31.3984375 C-24.38482178 30.50817871 -25.2735498 29.61791992 -26.18920898 28.70068359 C-28 26 -28 26 -28.05664062 22.97045898 C-26.79825413 19.43284612 -25.27976141 17.69149165 -22.59765625 15.07421875 C-21.70755859 14.19572266 -20.81746094 13.31722656 -19.90039062 12.41210938 C-18.96388672 11.51298828 -18.02738281 10.61386719 -17.0625 9.6875 C-16.12986328 8.76904297 -15.19722656 7.85058594 -14.23632812 6.90429688 C-5.60374389 -1.54102957 -5.60374389 -1.54102957 0 0 Z " fill="#373333" transform="translate(290,92)"/>
<path d="M0 0 C5.19708849 0.17211902 7.56095273 1.9209464 11.1796875 5.515625 C12.571875 6.89814453 12.571875 6.89814453 13.9921875 8.30859375 C14.46495117 8.79183105 14.93771484 9.27506836 15.42480469 9.77294922 C16.87452008 11.24951119 18.34908535 12.69740979 19.828125 14.14453125 C20.74851562 15.07136719 21.66890625 15.99820313 22.6171875 16.953125 C23.45878418 17.80036133 24.30038086 18.64759766 25.16748047 19.52050781 C27 22 27 22 27.5637207 24.48413086 C26.75672368 28.08573518 24.95243038 29.69522285 22.36328125 32.30078125 C21.88682663 32.7820195 21.41037201 33.26325775 20.91947937 33.75907898 C19.91087423 34.77107978 18.89595414 35.77682082 17.87524414 36.77661133 C16.317452 38.3076331 14.78812661 39.86348791 13.25976562 41.42382812 C12.27503663 42.40525296 11.28875766 43.38512558 10.30078125 44.36328125 C9.40528564 45.25313721 8.50979004 46.14299316 7.5871582 47.05981445 C5 49 5 49 2.29370117 49.41479492 C0 49 0 49 -2 47 C-2.11934005 43.17634466 -1.82967877 41.0955008 0.49658203 38.02392578 C2.45377619 35.95605242 4.47648155 34.00019627 6.5625 32.0625 C7.27341797 31.37865234 7.98433594 30.69480469 8.71679688 29.99023438 C10.46503967 28.31239062 12.22569351 26.6501846 14 25 C9.65157802 19.76242872 5.01515622 15.11261267 -0.0234375 10.52734375 C-2 8 -2 8 -2.4140625 4.81640625 C-2 2 -2 2 0 0 Z " fill="#353031" transform="translate(309,91)"/>
<path d="M0 0 C2 1.625 2 1.625 3 4 C2.93142082 7.84043397 2.5544649 10.18962822 0.375 13.375 C-2.83440764 15.57091049 -5.12406986 16 -9 16 C-11.4375 14.5 -11.4375 14.5 -13 12 C-13.61984499 7.73856568 -13.49311964 5.75611678 -11.125 2.125 C-7.36618439 -1.63381561 -5.10128678 -1.16345137 0 0 Z " fill="#F8F6F9" transform="translate(374,341)"/>
<path d="M0 0 C1.051875 -0.00386719 1.051875 -0.00386719 2.125 -0.0078125 C4 0.125 4 0.125 6 1.125 C6 1.785 6 2.445 6 3.125 C5.21625 3.41375 4.4325 3.7025 3.625 4 C0.90328368 4.97412254 0.90328368 4.97412254 -1 7.125 C-1.602095 13.025531 -0.06625443 17.70108212 2 23.125 C-0.64 23.125 -3.28 23.125 -6 23.125 C-8.97220814 17.42826774 -9.8248965 12.53965569 -9 6.125 C-6.84276049 1.32023928 -5.16952021 -0.01900559 0 0 Z " fill="#332F2E" transform="translate(236,365.875)"/>
<path d="M0 0 C4.95 0.99 9.9 1.98 15 3 C14 10 14 10 13 13 C8.38 13 3.76 13 -1 13 C-1.07972012 8.2965127 -0.93491183 4.67455917 0 0 Z " fill="#373333" transform="translate(304,371)"/>
<path d="M0 0 C2.52457422 1.00892482 5.04843505 2.01950652 7.5703125 3.03515625 C8.41335937 3.37417969 9.25640625 3.71320313 10.125 4.0625 C11.39730469 4.57490234 11.39730469 4.57490234 12.6953125 5.09765625 C16.59615232 6.62493421 19.51042745 7.11164203 23.6875 7.0625 C24.68136719 7.05347656 25.67523438 7.04445312 26.69921875 7.03515625 C27.45847656 7.02355469 28.21773437 7.01195312 29 7 C28.67 7.99 28.34 8.98 28 10 C27.96079185 11.99961564 27.95556653 14.00049364 28 16 C20.10166988 16.56416644 15.48013893 14.83528966 9.34375 9.8359375 C2.57848837 3.86773256 2.57848837 3.86773256 0 0 Z " fill="#3D3631" transform="translate(177,243)"/>
<path d="M0 0 C9.22379914 1.31768559 16.85855714 5.70451481 25 10 C24.01 10.33 23.02 10.66 22 11 C22 11.66 22 12.32 22 13 C21.45182617 12.6920752 20.90365234 12.38415039 20.33886719 12.06689453 C17.72995734 10.8768177 15.40490866 10.40081811 12.578125 9.9296875 C11.55332031 9.75566406 10.52851563 9.58164062 9.47265625 9.40234375 C7.87744141 9.14130859 7.87744141 9.14130859 6.25 8.875 C5.17105469 8.69324219 4.09210938 8.51148438 2.98046875 8.32421875 C0.32121479 7.87708755 -2.33888675 7.43590482 -5 7 C-5 6.67 -5 6.34 -5 6 C2.5601226 5.74372466 9.53836369 6.74330336 17 8 C8.585 4.535 8.585 4.535 0 1 C0 0.67 0 0.34 0 0 Z " fill="#6D534B" transform="translate(267,370)"/>
<path d="M0 0 C1.051875 -0.00386719 1.051875 -0.00386719 2.125 -0.0078125 C4 0.125 4 0.125 6 1.125 C6 1.785 6 2.445 6 3.125 C-3.42857143 7.125 -3.42857143 7.125 -8 7.125 C-8 10.095 -8 13.065 -8 16.125 C-8.33 16.125 -8.66 16.125 -9 16.125 C-9.56364659 5.37396324 -9.56364659 5.37396324 -6 1.125 C-3.75487738 0.00243869 -2.48543351 -0.00913762 0 0 Z " fill="#45383B" transform="translate(236,365.875)"/>
<path d="M0 0 C4.875 1.875 4.875 1.875 6 3 C6.25 5.4375 6.25 5.4375 6 8 C3 10 3 10 -1 10 C-0.67 6.7 -0.34 3.4 0 0 Z " fill="#F1EDF3" transform="translate(468,361)"/>
<path d="M0 0 C5.61 0.33 11.22 0.66 17 1 C17 1.99 17 2.98 17 4 C11.147205 3.48517081 5.6702363 2.54642808 0 1 C0 0.67 0 0.34 0 0 Z " fill="#B267A4" transform="translate(255,382)"/>
<path d="M0 0 C2.88437779 1.29299694 4.87219421 2.65941363 7 5 C6.67 5.99 6.34 6.98 6 8 C5.34 7.01 4.68 6.02 4 5 C3.21625 5.185625 2.4325 5.37125 1.625 5.5625 C-1 6 -1 6 -3 5 C-1.125 1.125 -1.125 1.125 0 0 Z " fill="#A47B5A" transform="translate(161,209)"/>
<path d="M0 0 C1.98 0.495 1.98 0.495 4 1 C3.67 2.65 3.34 4.3 3 6 C1.68 5.67 0.36 5.34 -1 5 C-0.67 3.35 -0.34 1.7 0 0 Z " fill="#3E3632" transform="translate(210,210)"/>
<path d="M0 0 C0.99 0.33 1.98 0.66 3 1 C3 2.65 3 4.3 3 6 C1.68 6.33 0.36 6.66 -1 7 C-1.04254356 5.00045254 -1.04080783 2.99958364 -1 1 C-0.67 0.67 -0.34 0.34 0 0 Z " fill="#3A3430" transform="translate(189,210)"/>
</svg>
